M48
METRIC,LZ,000.000
;FILE_FORMAT=3:3
;TYPE=PLATED
;Layer: Drill PTH
;EasyEDA v6.4.20.5, 2021-07-08T19:51:02+08:00
;9fc62b59898d4f10b595c4665fefa585,e7bc534dc2744323a0f9b62094545a88,10
;Gerber Generator version 0.2
;Holesize 1 = 0.305 mm
T01C0.305
;Holesize 2 = 1.101 mm
T02C1.101
;Holesize 3 = 1.143 mm
T03C1.143
;Holesize 4 = 1.200 mm
T04C1.200
%
G05
G90
T01
X021336Y064547
X003683Y065055
X003683Y064293
X003683Y063531
X003683Y062769
X012446Y068484
X037560Y068484
X028797Y062769
X028797Y063531
X028797Y064293
X028797Y065055
X046450Y064547
X062674Y068484
X053911Y062769
X053911Y063531
X053911Y064293
X053911Y065055
X071564Y064547
X087788Y068484
X079025Y062769
X079025Y063531
X079025Y064293
X079025Y065055
X096678Y064547
X112902Y068484
X104139Y062769
X104139Y063531
X104139Y064293
X104139Y065055
X121792Y064547
X121792Y044894
X104139Y045402
X104139Y044640
X104139Y043878
X104139Y043116
X112902Y048831
X096678Y044894
X079025Y045402
X079025Y044640
X079025Y043878
X079025Y043116
X087788Y048831
X071564Y044894
X053911Y045402
X053911Y044640
X053911Y043878
X053911Y043116
X062674Y048831
X046450Y044894
X028797Y045402
X028797Y044640
X028797Y043878
X028797Y043116
X037560Y048831
X012446Y048831
X003683Y043116
X003683Y043878
X003683Y044640
X003683Y045402
X021336Y044894
X121792Y025241
X104139Y025749
X104139Y024987
X104139Y024225
X104139Y023463
X112902Y029178
X096678Y025241
X079025Y025749
X079025Y024987
X079025Y024225
X079025Y023463
X087788Y029178
X071564Y025241
X053911Y025749
X053911Y024987
X053911Y024225
X053911Y023463
X062674Y029178
X046450Y025241
X028797Y025749
X028797Y024987
X028797Y024225
X028797Y023463
X037560Y029178
X012446Y029178
X003683Y023463
X003683Y024225
X003683Y024987
X003683Y025749
X021336Y025241
X121792Y005588
X104139Y006096
X104139Y005334
X104139Y004572
X104139Y003810
X112902Y009525
X096678Y005588
X079025Y006096
X079025Y005334
X079025Y004572
X079025Y003810
X087788Y009525
X071564Y005588
X053911Y006096
X053911Y005334
X053911Y004572
X053911Y003810
X062674Y009525
X046450Y005588
X028797Y006096
X028797Y005334
X028797Y004572
X028797Y003810
X037560Y009525
X012446Y009525
X003683Y003810
X003683Y004572
X003683Y005334
X003683Y006096
X021336Y005588
X121792Y-014065
X104139Y-013557
X104139Y-014319
X104139Y-015081
X104139Y-015843
X112902Y-010128
X096678Y-014065
X079025Y-013557
X079025Y-014319
X079025Y-015081
X079025Y-015843
X087788Y-010128
X071564Y-014065
X053911Y-013557
X053911Y-014319
X053911Y-015081
X053911Y-015843
X062674Y-010128
X046450Y-014065
X028797Y-013557
X028797Y-014319
X028797Y-015081
X028797Y-015843
X037560Y-010128
X012446Y-010128
X003683Y-015843
X003683Y-015081
X003683Y-014319
X003683Y-013557
X021336Y-014065
T02
X010100Y053149
X007600Y053149
X005100Y053149
X002600Y053149
X001397Y040830
X003937Y040830
X006477Y040830
X009017Y040830
X101853Y040830
X104393Y040830
X106933Y040830
X109473Y040830
X110556Y053149
X108056Y053149
X105556Y053149
X103056Y053149
X076739Y040830
X079279Y040830
X081819Y040830
X084359Y040830
X085442Y053149
X082942Y053149
X080442Y053149
X077942Y053149
X051625Y040830
X054165Y040830
X056705Y040830
X059245Y040830
X060328Y053149
X057828Y053149
X055328Y053149
X052828Y053149
X026511Y040830
X029051Y040830
X031591Y040830
X034131Y040830
X035214Y053149
X032714Y053149
X030214Y053149
X027714Y053149
X010100Y033496
X007600Y033496
X005100Y033496
X002600Y033496
X001397Y021177
X003937Y021177
X006477Y021177
X009017Y021177
X101853Y021177
X104393Y021177
X106933Y021177
X109473Y021177
X110556Y033496
X108056Y033496
X105556Y033496
X103056Y033496
X076739Y021177
X079279Y021177
X081819Y021177
X084359Y021177
X085442Y033496
X082942Y033496
X080442Y033496
X077942Y033496
X051625Y021177
X054165Y021177
X056705Y021177
X059245Y021177
X060328Y033496
X057828Y033496
X055328Y033496
X052828Y033496
X026511Y021177
X029051Y021177
X031591Y021177
X034131Y021177
X035214Y033496
X032714Y033496
X030214Y033496
X027714Y033496
X010100Y013843
X007600Y013843
X005100Y013843
X002600Y013843
X001397Y001524
X003937Y001524
X006477Y001524
X009017Y001524
X101853Y001524
X104393Y001524
X106933Y001524
X109473Y001524
X110556Y013843
X108056Y013843
X105556Y013843
X103056Y013843
X076739Y001524
X079279Y001524
X081819Y001524
X084359Y001524
X085442Y013843
X082942Y013843
X080442Y013843
X077942Y013843
X051625Y001524
X054165Y001524
X056705Y001524
X059245Y001524
X060328Y013843
X057828Y013843
X055328Y013843
X052828Y013843
X026511Y001524
X029051Y001524
X031591Y001524
X034131Y001524
X035214Y013843
X032714Y013843
X030214Y013843
X027714Y013843
X010100Y-005810
X007600Y-005810
X005100Y-005810
X002600Y-005810
X001397Y-018129
X003937Y-018129
X006477Y-018129
X009017Y-018129
X101853Y-018129
X104393Y-018129
X106933Y-018129
X109473Y-018129
X110556Y-005810
X108056Y-005810
X105556Y-005810
X103056Y-005810
X076739Y-018129
X079279Y-018129
X081819Y-018129
X084359Y-018129
X085442Y-005810
X082942Y-005810
X080442Y-005810
X077942Y-005810
X051625Y-018129
X054165Y-018129
X056705Y-018129
X059245Y-018129
X060328Y-005810
X057828Y-005810
X055328Y-005810
X052828Y-005810
X026511Y-018129
X029051Y-018129
X031591Y-018129
X034131Y-018129
X035214Y-005810
X032714Y-005810
X030214Y-005810
X027714Y-005810
X035214Y072802
X032714Y072802
X030214Y072802
X027714Y072802
X026511Y060483
X029051Y060483
X031591Y060483
X034131Y060483
X060328Y072802
X057828Y072802
X055328Y072802
X052828Y072802
X051625Y060483
X054165Y060483
X056705Y060483
X059245Y060483
X085442Y072802
X082942Y072802
X080442Y072802
X077942Y072802
X076739Y060483
X079279Y060483
X081819Y060483
X084359Y060483
X110556Y072802
X108056Y072802
X105556Y072802
X103056Y072802
X101853Y060483
X104393Y060483
X106933Y060483
X109473Y060483
X001397Y060483
X003937Y060483
X006477Y060483
X009017Y060483
X010100Y072802
X007600Y072802
X005100Y072802
X002600Y072802
T03
X021717Y053019G85X021717Y053025
X021717Y055559G85X021717Y055565
X122173Y053019G85X122173Y053024
X122173Y055559G85X122173Y055564
X097059Y053019G85X097059Y053024
X097059Y055559G85X097059Y055564
X071945Y053019G85X071945Y053024
X071945Y055559G85X071945Y055564
X046831Y053019G85X046831Y053025
X046831Y055559G85X046831Y055565
X021717Y033366G85X021717Y033372
X021717Y035906G85X021717Y035912
X122173Y033366G85X122173Y033371
X122173Y035906G85X122173Y035911
X097059Y033366G85X097059Y033371
X097059Y035906G85X097059Y035911
X071945Y033366G85X071945Y033371
X071945Y035906G85X071945Y035911
X046831Y033366G85X046831Y033372
X046831Y035906G85X046831Y035912
X021717Y013713G85X021717Y013719
X021717Y016253G85X021717Y016259
X122173Y013713G85X122173Y013718
X122173Y016253G85X122173Y016258
X097059Y013713G85X097059Y013718
X097059Y016253G85X097059Y016258
X071945Y013713G85X071945Y013718
X071945Y016253G85X071945Y016258
X046831Y013713G85X046831Y013719
X046831Y016253G85X046831Y016259
X021717Y-005940G85X021717Y-005935
X021717Y-003400G85X021717Y-003395
X122173Y-005940G85X122173Y-005935
X122173Y-003400G85X122173Y-003395
X097059Y-005940G85X097059Y-005935
X097059Y-003400G85X097059Y-003395
X071945Y-005940G85X071945Y-005935
X071945Y-003400G85X071945Y-003395
X046831Y-005940G85X046831Y-005935
X046831Y-003400G85X046831Y-003395
X046831Y072672G85X046831Y072678
X046831Y075212G85X046831Y075218
X071945Y072672G85X071945Y072677
X071945Y075212G85X071945Y075217
X097059Y072672G85X097059Y072677
X097059Y075212G85X097059Y075217
X122173Y072672G85X122173Y072677
X122173Y075212G85X122173Y075217
X021717Y072672G85X021717Y072678
X021717Y075212G85X021717Y075218
T04
X014097Y053784
X016637Y051244
X019177Y053784
X114553Y053784
X117093Y051244
X119633Y053784
X089439Y053784
X091979Y051244
X094519Y053784
X064325Y053784
X066865Y051244
X069405Y053784
X039211Y053784
X041751Y051244
X044291Y053784
X014097Y034131
X016637Y031591
X019177Y034131
X114553Y034131
X117093Y031591
X119633Y034131
X089439Y034131
X091979Y031591
X094519Y034131
X064325Y034131
X066865Y031591
X069405Y034131
X039211Y034131
X041751Y031591
X044291Y034131
X014097Y014478
X016637Y011938
X019177Y014478
X114553Y014478
X117093Y011938
X119633Y014478
X089439Y014478
X091979Y011938
X094519Y014478
X064325Y014478
X066865Y011938
X069405Y014478
X039211Y014478
X041751Y011938
X044291Y014478
X014097Y-005175
X016637Y-007715
X019177Y-005175
X114553Y-005175
X117093Y-007715
X119633Y-005175
X089439Y-005175
X091979Y-007715
X094519Y-005175
X064325Y-005175
X066865Y-007715
X069405Y-005175
X039211Y-005175
X041751Y-007715
X044291Y-005175
X039211Y073437
X041751Y070897
X044291Y073437
X064325Y073437
X066865Y070897
X069405Y073437
X089439Y073437
X091979Y070897
X094519Y073437
X114553Y073437
X117093Y070897
X119633Y073437
X014097Y073437
X016637Y070897
X019177Y073437
M30
