G04 Layer: TopPasteMaskLayer*
G04 EasyEDA v6.4.20.5, 2021-07-08T19:51:02+08:00*
G04 9fc62b59898d4f10b595c4665fefa585,e7bc534dc2744323a0f9b62094545a88,10*
G04 Gerber Generator version 0.2*
G04 Scale: 100 percent, Rotated: No, Reflected: No *
G04 Dimensions in millimeters *
G04 leading zeros omitted , absolute positions ,4 integer and 5 decimal *
%FSLAX45Y45*%
%MOMM*%

%ADD16R,0.9144X0.9144*%
%ADD17R,1.2700X1.2700*%

%LPD*%
G36*
X1363974Y4540199D02*
G01*
X1363974Y4387799D01*
X1059174Y4387799D01*
X1059174Y4540199D01*
G37*
G36*
X866127Y4648149D02*
G01*
X993127Y4648149D01*
X993129Y4584649D01*
X866127Y4584649D01*
G37*
G36*
X861047Y4495749D02*
G01*
X1115047Y4495749D01*
X1115047Y4432249D01*
X861047Y4432249D01*
G37*
G36*
X866127Y4343349D02*
G01*
X993129Y4343349D01*
X993127Y4279849D01*
X866127Y4279849D01*
G37*
D16*
G01*
X1150609Y4997399D03*
G01*
X957574Y4997399D03*
G36*
X1099809Y4730699D02*
G01*
X1008374Y4730699D01*
X1008374Y4857696D01*
X1099809Y4857696D01*
G37*
G36*
X127000Y4578299D02*
G01*
X304800Y4578299D01*
X304800Y4273499D01*
X127000Y4273499D01*
G37*
G36*
X584192Y4578299D02*
G01*
X761992Y4578299D01*
X761992Y4273499D01*
X584192Y4273499D01*
G37*
G36*
X127000Y4971999D02*
G01*
X304800Y4971999D01*
X304800Y4667199D01*
X127000Y4667199D01*
G37*
G36*
X584192Y4971999D02*
G01*
X761992Y4971999D01*
X761992Y4667199D01*
X584192Y4667199D01*
G37*
D17*
G01*
X1650992Y4883099D03*
G01*
X1650992Y4654499D03*
G01*
X1892292Y4883099D03*
G01*
X1892292Y4654499D03*
G01*
X2133592Y4883099D03*
G01*
X2133592Y4654499D03*
G01*
X1409692Y4654499D03*
G01*
X1409692Y4883099D03*
G01*
X11455311Y4654491D03*
G01*
X11455311Y4883091D03*
G01*
X12179211Y4883091D03*
G01*
X12179211Y4654491D03*
G01*
X11937911Y4883091D03*
G01*
X11937911Y4654491D03*
G01*
X11696611Y4883091D03*
G01*
X11696611Y4654491D03*
G36*
X10172611Y4971991D02*
G01*
X10350411Y4971991D01*
X10350411Y4667191D01*
X10172611Y4667191D01*
G37*
G36*
X10629811Y4971991D02*
G01*
X10807611Y4971991D01*
X10807611Y4667191D01*
X10629811Y4667191D01*
G37*
G36*
X10172611Y4578291D02*
G01*
X10350411Y4578291D01*
X10350411Y4273491D01*
X10172611Y4273491D01*
G37*
G36*
X10629811Y4578291D02*
G01*
X10807611Y4578291D01*
X10807611Y4273491D01*
X10629811Y4273491D01*
G37*
D16*
G01*
X11196231Y4997391D03*
G01*
X11003186Y4997391D03*
G36*
X11145431Y4730691D02*
G01*
X11053986Y4730691D01*
X11053986Y4857689D01*
X11145431Y4857689D01*
G37*
G36*
X11409586Y4540191D02*
G01*
X11409586Y4387791D01*
X11104786Y4387791D01*
X11104786Y4540191D01*
G37*
G36*
X10911748Y4648141D02*
G01*
X11038748Y4648141D01*
X11038748Y4584641D01*
X10911748Y4584641D01*
G37*
G36*
X10906668Y4495741D02*
G01*
X11160668Y4495741D01*
X11160668Y4432241D01*
X10906668Y4432241D01*
G37*
G36*
X10911748Y4343341D02*
G01*
X11038748Y4343341D01*
X11038748Y4279841D01*
X10911748Y4279841D01*
G37*
D17*
G01*
X8943908Y4654491D03*
G01*
X8943908Y4883091D03*
G01*
X9667808Y4883091D03*
G01*
X9667808Y4654491D03*
G01*
X9426508Y4883091D03*
G01*
X9426508Y4654491D03*
G01*
X9185208Y4883091D03*
G01*
X9185208Y4654491D03*
G36*
X7661208Y4971991D02*
G01*
X7839008Y4971991D01*
X7839008Y4667191D01*
X7661208Y4667191D01*
G37*
G36*
X8118408Y4971991D02*
G01*
X8296208Y4971991D01*
X8296208Y4667191D01*
X8118408Y4667191D01*
G37*
G36*
X7661208Y4578291D02*
G01*
X7839008Y4578291D01*
X7839008Y4273491D01*
X7661208Y4273491D01*
G37*
G36*
X8118408Y4578291D02*
G01*
X8296208Y4578291D01*
X8296208Y4273491D01*
X8118408Y4273491D01*
G37*
D16*
G01*
X8684826Y4997391D03*
G01*
X8491791Y4997391D03*
G36*
X8634026Y4730691D02*
G01*
X8542591Y4730691D01*
X8542591Y4857691D01*
X8634026Y4857691D01*
G37*
G36*
X8898191Y4540191D02*
G01*
X8898191Y4387791D01*
X8593391Y4387791D01*
X8593391Y4540191D01*
G37*
G36*
X8400343Y4648141D02*
G01*
X8527343Y4648141D01*
X8527343Y4584641D01*
X8400343Y4584641D01*
G37*
G36*
X8395263Y4495741D02*
G01*
X8649263Y4495741D01*
X8649263Y4432241D01*
X8395263Y4432241D01*
G37*
G36*
X8400343Y4343341D02*
G01*
X8527343Y4343341D01*
X8527343Y4279841D01*
X8400343Y4279841D01*
G37*
D17*
G01*
X6432499Y4654494D03*
G01*
X6432499Y4883094D03*
G01*
X7156399Y4883094D03*
G01*
X7156399Y4654494D03*
G01*
X6915099Y4883094D03*
G01*
X6915099Y4654494D03*
G01*
X6673799Y4883094D03*
G01*
X6673799Y4654494D03*
G36*
X5149799Y4971994D02*
G01*
X5327599Y4971994D01*
X5327599Y4667194D01*
X5149799Y4667194D01*
G37*
G36*
X5606999Y4971994D02*
G01*
X5784799Y4971994D01*
X5784799Y4667194D01*
X5606999Y4667194D01*
G37*
G36*
X5149799Y4578294D02*
G01*
X5327599Y4578294D01*
X5327599Y4273494D01*
X5149799Y4273494D01*
G37*
G36*
X5606999Y4578294D02*
G01*
X5784799Y4578294D01*
X5784799Y4273494D01*
X5606999Y4273494D01*
G37*
D16*
G01*
X6173424Y4997394D03*
G01*
X5980381Y4997394D03*
G36*
X6122624Y4730694D02*
G01*
X6031181Y4730694D01*
X6031181Y4857691D01*
X6122624Y4857691D01*
G37*
G36*
X6386781Y4540194D02*
G01*
X6386781Y4387794D01*
X6081981Y4387794D01*
X6081981Y4540194D01*
G37*
G36*
X5888941Y4648144D02*
G01*
X6015941Y4648144D01*
X6015944Y4584644D01*
X5888941Y4584644D01*
G37*
G36*
X5883864Y4495744D02*
G01*
X6137864Y4495744D01*
X6137864Y4432244D01*
X5883864Y4432244D01*
G37*
G36*
X5888941Y4343344D02*
G01*
X6015944Y4343344D01*
X6015941Y4279844D01*
X5888941Y4279844D01*
G37*
D17*
G01*
X3921097Y4654499D03*
G01*
X3921097Y4883099D03*
G01*
X4644997Y4883099D03*
G01*
X4644997Y4654499D03*
G01*
X4403697Y4883099D03*
G01*
X4403697Y4654499D03*
G01*
X4162397Y4883099D03*
G01*
X4162397Y4654499D03*
G36*
X2638397Y4971999D02*
G01*
X2816197Y4971999D01*
X2816197Y4667199D01*
X2638397Y4667199D01*
G37*
G36*
X3095597Y4971999D02*
G01*
X3273397Y4971999D01*
X3273397Y4667199D01*
X3095597Y4667199D01*
G37*
G36*
X2638397Y4578299D02*
G01*
X2816197Y4578299D01*
X2816197Y4273499D01*
X2638397Y4273499D01*
G37*
G36*
X3095597Y4578299D02*
G01*
X3273397Y4578299D01*
X3273397Y4273499D01*
X3095597Y4273499D01*
G37*
D16*
G01*
X3662014Y4997399D03*
G01*
X3468979Y4997399D03*
G36*
X3611214Y4730699D02*
G01*
X3519779Y4730699D01*
X3519779Y4857694D01*
X3611214Y4857694D01*
G37*
G36*
X3875379Y4540199D02*
G01*
X3875379Y4387799D01*
X3570579Y4387799D01*
X3570579Y4540199D01*
G37*
G36*
X3377531Y4648149D02*
G01*
X3504531Y4648149D01*
X3504542Y4584649D01*
X3377531Y4584649D01*
G37*
G36*
X3372462Y4495749D02*
G01*
X3626462Y4495749D01*
X3626462Y4432249D01*
X3372462Y4432249D01*
G37*
G36*
X3377531Y4343349D02*
G01*
X3504542Y4343349D01*
X3504531Y4279849D01*
X3377531Y4279849D01*
G37*
G36*
X1363980Y2574899D02*
G01*
X1363980Y2422499D01*
X1059180Y2422499D01*
X1059180Y2574899D01*
G37*
G36*
X866139Y2682849D02*
G01*
X993139Y2682849D01*
X993142Y2619349D01*
X866139Y2619349D01*
G37*
G36*
X861060Y2530449D02*
G01*
X1115060Y2530449D01*
X1115060Y2466949D01*
X861060Y2466949D01*
G37*
G36*
X866139Y2378049D02*
G01*
X993142Y2378049D01*
X993139Y2314549D01*
X866139Y2314549D01*
G37*
G01*
X1150619Y3032099D03*
G01*
X957580Y3032099D03*
G36*
X1099819Y2765399D02*
G01*
X1008380Y2765399D01*
X1008380Y2892397D01*
X1099819Y2892397D01*
G37*
G36*
X127000Y2612999D02*
G01*
X304800Y2612999D01*
X304800Y2308199D01*
X127000Y2308199D01*
G37*
G36*
X584200Y2612999D02*
G01*
X762000Y2612999D01*
X762000Y2308199D01*
X584200Y2308199D01*
G37*
G36*
X127000Y3006699D02*
G01*
X304800Y3006699D01*
X304800Y2701899D01*
X127000Y2701899D01*
G37*
G36*
X584200Y3006699D02*
G01*
X762000Y3006699D01*
X762000Y2701899D01*
X584200Y2701899D01*
G37*
D17*
G01*
X1651000Y2917799D03*
G01*
X1651000Y2689199D03*
G01*
X1892300Y2917799D03*
G01*
X1892300Y2689199D03*
G01*
X2133600Y2917799D03*
G01*
X2133600Y2689199D03*
G01*
X1409700Y2689199D03*
G01*
X1409700Y2917799D03*
G01*
X11455318Y2689191D03*
G01*
X11455318Y2917791D03*
G01*
X12179218Y2917791D03*
G01*
X12179218Y2689191D03*
G01*
X11937918Y2917791D03*
G01*
X11937918Y2689191D03*
G01*
X11696618Y2917791D03*
G01*
X11696618Y2689191D03*
G36*
X10172618Y3006691D02*
G01*
X10350418Y3006691D01*
X10350418Y2701891D01*
X10172618Y2701891D01*
G37*
G36*
X10629818Y3006691D02*
G01*
X10807618Y3006691D01*
X10807618Y2701891D01*
X10629818Y2701891D01*
G37*
G36*
X10172618Y2612991D02*
G01*
X10350418Y2612991D01*
X10350418Y2308191D01*
X10172618Y2308191D01*
G37*
G36*
X10629818Y2612991D02*
G01*
X10807618Y2612991D01*
X10807618Y2308191D01*
X10629818Y2308191D01*
G37*
D16*
G01*
X11196243Y3032091D03*
G01*
X11003198Y3032091D03*
G36*
X11145443Y2765391D02*
G01*
X11053998Y2765391D01*
X11053998Y2892389D01*
X11145443Y2892389D01*
G37*
G36*
X11409598Y2574891D02*
G01*
X11409598Y2422491D01*
X11104798Y2422491D01*
X11104798Y2574891D01*
G37*
G36*
X10911761Y2682841D02*
G01*
X11038761Y2682841D01*
X11038761Y2619341D01*
X10911761Y2619341D01*
G37*
G36*
X10906681Y2530441D02*
G01*
X11160681Y2530441D01*
X11160681Y2466941D01*
X10906681Y2466941D01*
G37*
G36*
X10911761Y2378041D02*
G01*
X11038761Y2378041D01*
X11038761Y2314541D01*
X10911761Y2314541D01*
G37*
D17*
G01*
X8943919Y2689191D03*
G01*
X8943919Y2917791D03*
G01*
X9667819Y2917791D03*
G01*
X9667819Y2689191D03*
G01*
X9426519Y2917791D03*
G01*
X9426519Y2689191D03*
G01*
X9185219Y2917791D03*
G01*
X9185219Y2689191D03*
G36*
X7661219Y3006691D02*
G01*
X7839019Y3006691D01*
X7839019Y2701891D01*
X7661219Y2701891D01*
G37*
G36*
X8118419Y3006691D02*
G01*
X8296219Y3006691D01*
X8296219Y2701891D01*
X8118419Y2701891D01*
G37*
G36*
X7661219Y2612991D02*
G01*
X7839019Y2612991D01*
X7839019Y2308191D01*
X7661219Y2308191D01*
G37*
G36*
X8118419Y2612991D02*
G01*
X8296219Y2612991D01*
X8296219Y2308191D01*
X8118419Y2308191D01*
G37*
D16*
G01*
X8684839Y3032091D03*
G01*
X8491801Y3032091D03*
G36*
X8634039Y2765391D02*
G01*
X8542601Y2765391D01*
X8542601Y2892391D01*
X8634039Y2892391D01*
G37*
G36*
X8898201Y2574891D02*
G01*
X8898201Y2422491D01*
X8593401Y2422491D01*
X8593401Y2574891D01*
G37*
G36*
X8400356Y2682841D02*
G01*
X8527356Y2682841D01*
X8527356Y2619341D01*
X8400356Y2619341D01*
G37*
G36*
X8395274Y2530441D02*
G01*
X8649274Y2530441D01*
X8649274Y2466941D01*
X8395274Y2466941D01*
G37*
G36*
X8400356Y2378041D02*
G01*
X8527356Y2378041D01*
X8527356Y2314541D01*
X8400356Y2314541D01*
G37*
D17*
G01*
X6432511Y2689194D03*
G01*
X6432511Y2917794D03*
G01*
X7156411Y2917794D03*
G01*
X7156411Y2689194D03*
G01*
X6915111Y2917794D03*
G01*
X6915111Y2689194D03*
G01*
X6673811Y2917794D03*
G01*
X6673811Y2689194D03*
G36*
X5149811Y3006694D02*
G01*
X5327611Y3006694D01*
X5327611Y2701894D01*
X5149811Y2701894D01*
G37*
G36*
X5607011Y3006694D02*
G01*
X5784811Y3006694D01*
X5784811Y2701894D01*
X5607011Y2701894D01*
G37*
G36*
X5149811Y2612994D02*
G01*
X5327611Y2612994D01*
X5327611Y2308194D01*
X5149811Y2308194D01*
G37*
G36*
X5607011Y2612994D02*
G01*
X5784811Y2612994D01*
X5784811Y2308194D01*
X5607011Y2308194D01*
G37*
D16*
G01*
X6173431Y3032094D03*
G01*
X5980394Y3032094D03*
G36*
X6122631Y2765394D02*
G01*
X6031194Y2765394D01*
X6031194Y2892391D01*
X6122631Y2892391D01*
G37*
G36*
X6386794Y2574894D02*
G01*
X6386794Y2422494D01*
X6081994Y2422494D01*
X6081994Y2574894D01*
G37*
G36*
X5888951Y2682844D02*
G01*
X6015951Y2682844D01*
X6015956Y2619344D01*
X5888951Y2619344D01*
G37*
G36*
X5883876Y2530444D02*
G01*
X6137876Y2530444D01*
X6137876Y2466944D01*
X5883876Y2466944D01*
G37*
G36*
X5888951Y2378044D02*
G01*
X6015956Y2378044D01*
X6015951Y2314544D01*
X5888951Y2314544D01*
G37*
D17*
G01*
X3921109Y2689199D03*
G01*
X3921109Y2917799D03*
G01*
X4645009Y2917799D03*
G01*
X4645009Y2689199D03*
G01*
X4403709Y2917799D03*
G01*
X4403709Y2689199D03*
G01*
X4162409Y2917799D03*
G01*
X4162409Y2689199D03*
G36*
X2638409Y3006699D02*
G01*
X2816209Y3006699D01*
X2816209Y2701899D01*
X2638409Y2701899D01*
G37*
G36*
X3095609Y3006699D02*
G01*
X3273409Y3006699D01*
X3273409Y2701899D01*
X3095609Y2701899D01*
G37*
G36*
X2638409Y2612999D02*
G01*
X2816209Y2612999D01*
X2816209Y2308199D01*
X2638409Y2308199D01*
G37*
G36*
X3095609Y2612999D02*
G01*
X3273409Y2612999D01*
X3273409Y2308199D01*
X3095609Y2308199D01*
G37*
D16*
G01*
X3662027Y3032099D03*
G01*
X3468992Y3032099D03*
G36*
X3611227Y2765399D02*
G01*
X3519792Y2765399D01*
X3519792Y2892394D01*
X3611227Y2892394D01*
G37*
G36*
X3875392Y2574899D02*
G01*
X3875392Y2422499D01*
X3570592Y2422499D01*
X3570592Y2574899D01*
G37*
G36*
X3377544Y2682849D02*
G01*
X3504544Y2682849D01*
X3504554Y2619349D01*
X3377544Y2619349D01*
G37*
G36*
X3372474Y2530449D02*
G01*
X3626474Y2530449D01*
X3626474Y2466949D01*
X3372474Y2466949D01*
G37*
G36*
X3377544Y2378049D02*
G01*
X3504554Y2378049D01*
X3504544Y2314549D01*
X3377544Y2314549D01*
G37*
G36*
X1363982Y609599D02*
G01*
X1363982Y457199D01*
X1059182Y457199D01*
X1059182Y609599D01*
G37*
G36*
X866137Y717549D02*
G01*
X993137Y717549D01*
X993139Y654049D01*
X866137Y654049D01*
G37*
G36*
X861057Y565149D02*
G01*
X1115057Y565149D01*
X1115057Y501649D01*
X861057Y501649D01*
G37*
G36*
X866137Y412749D02*
G01*
X993139Y412749D01*
X993137Y349249D01*
X866137Y349249D01*
G37*
G01*
X1150619Y1066800D03*
G01*
X957582Y1066800D03*
G36*
X1099819Y800099D02*
G01*
X1008382Y800099D01*
X1008382Y927097D01*
X1099819Y927097D01*
G37*
G36*
X127000Y647699D02*
G01*
X304800Y647699D01*
X304800Y342899D01*
X127000Y342899D01*
G37*
G36*
X584200Y647699D02*
G01*
X762000Y647699D01*
X762000Y342899D01*
X584200Y342899D01*
G37*
G36*
X127000Y1041399D02*
G01*
X304800Y1041399D01*
X304800Y736599D01*
X127000Y736599D01*
G37*
G36*
X584200Y1041399D02*
G01*
X762000Y1041399D01*
X762000Y736599D01*
X584200Y736599D01*
G37*
D17*
G01*
X1651000Y952500D03*
G01*
X1651000Y723900D03*
G01*
X1892300Y952500D03*
G01*
X1892300Y723900D03*
G01*
X2133600Y952500D03*
G01*
X2133600Y723900D03*
G01*
X1409700Y723900D03*
G01*
X1409700Y952500D03*
G01*
X11455321Y723892D03*
G01*
X11455321Y952492D03*
G01*
X12179221Y952492D03*
G01*
X12179221Y723892D03*
G01*
X11937921Y952492D03*
G01*
X11937921Y723892D03*
G01*
X11696621Y952492D03*
G01*
X11696621Y723892D03*
G36*
X10172621Y1041392D02*
G01*
X10350421Y1041392D01*
X10350421Y736592D01*
X10172621Y736592D01*
G37*
G36*
X10629821Y1041392D02*
G01*
X10807621Y1041392D01*
X10807621Y736592D01*
X10629821Y736592D01*
G37*
G36*
X10172621Y647692D02*
G01*
X10350421Y647692D01*
X10350421Y342892D01*
X10172621Y342892D01*
G37*
G36*
X10629821Y647692D02*
G01*
X10807621Y647692D01*
X10807621Y342892D01*
X10629821Y342892D01*
G37*
D16*
G01*
X11196241Y1066792D03*
G01*
X11003201Y1066792D03*
G36*
X11145441Y800092D02*
G01*
X11054001Y800092D01*
X11054001Y927089D01*
X11145441Y927089D01*
G37*
G36*
X11409601Y609592D02*
G01*
X11409601Y457192D01*
X11104801Y457192D01*
X11104801Y609592D01*
G37*
G36*
X10911758Y717542D02*
G01*
X11038758Y717542D01*
X11038758Y654042D01*
X10911758Y654042D01*
G37*
G36*
X10906683Y565142D02*
G01*
X11160683Y565142D01*
X11160683Y501642D01*
X10906683Y501642D01*
G37*
G36*
X10911758Y412742D02*
G01*
X11038758Y412742D01*
X11038758Y349242D01*
X10911758Y349242D01*
G37*
D17*
G01*
X8943919Y723892D03*
G01*
X8943919Y952492D03*
G01*
X9667819Y952492D03*
G01*
X9667819Y723892D03*
G01*
X9426519Y952492D03*
G01*
X9426519Y723892D03*
G01*
X9185219Y952492D03*
G01*
X9185219Y723892D03*
G36*
X7661219Y1041392D02*
G01*
X7839019Y1041392D01*
X7839019Y736592D01*
X7661219Y736592D01*
G37*
G36*
X8118419Y1041392D02*
G01*
X8296219Y1041392D01*
X8296219Y736592D01*
X8118419Y736592D01*
G37*
G36*
X7661219Y647692D02*
G01*
X7839019Y647692D01*
X7839019Y342892D01*
X7661219Y342892D01*
G37*
G36*
X8118419Y647692D02*
G01*
X8296219Y647692D01*
X8296219Y342892D01*
X8118419Y342892D01*
G37*
D16*
G01*
X8684836Y1066792D03*
G01*
X8491801Y1066792D03*
G36*
X8634036Y800092D02*
G01*
X8542601Y800092D01*
X8542601Y927092D01*
X8634036Y927092D01*
G37*
G36*
X8898201Y609592D02*
G01*
X8898201Y457192D01*
X8593401Y457192D01*
X8593401Y609592D01*
G37*
G36*
X8400354Y717542D02*
G01*
X8527354Y717542D01*
X8527354Y654042D01*
X8400354Y654042D01*
G37*
G36*
X8395271Y565142D02*
G01*
X8649271Y565142D01*
X8649271Y501642D01*
X8395271Y501642D01*
G37*
G36*
X8400354Y412742D02*
G01*
X8527354Y412742D01*
X8527354Y349242D01*
X8400354Y349242D01*
G37*
D17*
G01*
X6432514Y723894D03*
G01*
X6432514Y952494D03*
G01*
X7156414Y952494D03*
G01*
X7156414Y723894D03*
G01*
X6915114Y952494D03*
G01*
X6915114Y723894D03*
G01*
X6673814Y952494D03*
G01*
X6673814Y723894D03*
G36*
X5149814Y1041394D02*
G01*
X5327614Y1041394D01*
X5327614Y736594D01*
X5149814Y736594D01*
G37*
G36*
X5607014Y1041394D02*
G01*
X5784814Y1041394D01*
X5784814Y736594D01*
X5607014Y736594D01*
G37*
G36*
X5149814Y647694D02*
G01*
X5327614Y647694D01*
X5327614Y342894D01*
X5149814Y342894D01*
G37*
G36*
X5607014Y647694D02*
G01*
X5784814Y647694D01*
X5784814Y342894D01*
X5607014Y342894D01*
G37*
D16*
G01*
X6173434Y1066794D03*
G01*
X5980396Y1066794D03*
G36*
X6122634Y800094D02*
G01*
X6031196Y800094D01*
X6031196Y927092D01*
X6122634Y927092D01*
G37*
G36*
X6386796Y609594D02*
G01*
X6386796Y457194D01*
X6081996Y457194D01*
X6081996Y609594D01*
G37*
G36*
X5888951Y717544D02*
G01*
X6015951Y717544D01*
X6015954Y654044D01*
X5888951Y654044D01*
G37*
G36*
X5883879Y565144D02*
G01*
X6137879Y565144D01*
X6137879Y501644D01*
X5883879Y501644D01*
G37*
G36*
X5888951Y412744D02*
G01*
X6015954Y412744D01*
X6015951Y349244D01*
X5888951Y349244D01*
G37*
D17*
G01*
X3921112Y723900D03*
G01*
X3921112Y952500D03*
G01*
X4645012Y952500D03*
G01*
X4645012Y723900D03*
G01*
X4403712Y952500D03*
G01*
X4403712Y723900D03*
G01*
X4162412Y952500D03*
G01*
X4162412Y723900D03*
G36*
X2638412Y1041399D02*
G01*
X2816212Y1041399D01*
X2816212Y736599D01*
X2638412Y736599D01*
G37*
G36*
X3095612Y1041399D02*
G01*
X3273412Y1041399D01*
X3273412Y736599D01*
X3095612Y736599D01*
G37*
G36*
X2638412Y647699D02*
G01*
X2816212Y647699D01*
X2816212Y342899D01*
X2638412Y342899D01*
G37*
G36*
X3095612Y647699D02*
G01*
X3273412Y647699D01*
X3273412Y342899D01*
X3095612Y342899D01*
G37*
D16*
G01*
X3662024Y1066800D03*
G01*
X3468994Y1066800D03*
G36*
X3611224Y800099D02*
G01*
X3519794Y800099D01*
X3519794Y927094D01*
X3611224Y927094D01*
G37*
G36*
X3875394Y609599D02*
G01*
X3875394Y457199D01*
X3570594Y457199D01*
X3570594Y609599D01*
G37*
G36*
X3377542Y717549D02*
G01*
X3504542Y717549D01*
X3504552Y654049D01*
X3377542Y654049D01*
G37*
G36*
X3372477Y565149D02*
G01*
X3626477Y565149D01*
X3626477Y501649D01*
X3372477Y501649D01*
G37*
G36*
X3377542Y412749D02*
G01*
X3504552Y412749D01*
X3504542Y349249D01*
X3377542Y349249D01*
G37*
G36*
X1363985Y-1355707D02*
G01*
X1363985Y-1508107D01*
X1059185Y-1508107D01*
X1059185Y-1355707D01*
G37*
G36*
X866139Y-1247757D02*
G01*
X993139Y-1247757D01*
X993142Y-1311257D01*
X866139Y-1311257D01*
G37*
G36*
X861060Y-1400157D02*
G01*
X1115060Y-1400157D01*
X1115060Y-1463657D01*
X861060Y-1463657D01*
G37*
G36*
X866139Y-1552557D02*
G01*
X993142Y-1552557D01*
X993139Y-1616057D01*
X866139Y-1616057D01*
G37*
G01*
X1150622Y-898507D03*
G01*
X957585Y-898507D03*
G36*
X1099822Y-1165207D02*
G01*
X1008385Y-1165207D01*
X1008385Y-1038209D01*
X1099822Y-1038209D01*
G37*
G36*
X127002Y-1317607D02*
G01*
X304802Y-1317607D01*
X304802Y-1622407D01*
X127002Y-1622407D01*
G37*
G36*
X584202Y-1317607D02*
G01*
X762002Y-1317607D01*
X762002Y-1622407D01*
X584202Y-1622407D01*
G37*
G36*
X127002Y-923907D02*
G01*
X304802Y-923907D01*
X304802Y-1228707D01*
X127002Y-1228707D01*
G37*
G36*
X584202Y-923907D02*
G01*
X762002Y-923907D01*
X762002Y-1228707D01*
X584202Y-1228707D01*
G37*
D17*
G01*
X1651002Y-1012807D03*
G01*
X1651002Y-1241407D03*
G01*
X1892302Y-1012807D03*
G01*
X1892302Y-1241407D03*
G01*
X2133602Y-1012807D03*
G01*
X2133602Y-1241407D03*
G01*
X1409702Y-1241407D03*
G01*
X1409702Y-1012807D03*
G01*
X11455323Y-1241414D03*
G01*
X11455323Y-1012814D03*
G01*
X12179223Y-1012814D03*
G01*
X12179223Y-1241414D03*
G01*
X11937923Y-1012814D03*
G01*
X11937923Y-1241414D03*
G01*
X11696623Y-1012814D03*
G01*
X11696623Y-1241414D03*
G36*
X10172623Y-923914D02*
G01*
X10350423Y-923914D01*
X10350423Y-1228714D01*
X10172623Y-1228714D01*
G37*
G36*
X10629823Y-923914D02*
G01*
X10807623Y-923914D01*
X10807623Y-1228714D01*
X10629823Y-1228714D01*
G37*
G36*
X10172623Y-1317614D02*
G01*
X10350423Y-1317614D01*
X10350423Y-1622414D01*
X10172623Y-1622414D01*
G37*
G36*
X10629823Y-1317614D02*
G01*
X10807623Y-1317614D01*
X10807623Y-1622414D01*
X10629823Y-1622414D01*
G37*
D16*
G01*
X11196243Y-898514D03*
G01*
X11003203Y-898514D03*
G36*
X11145443Y-1165214D02*
G01*
X11054003Y-1165214D01*
X11054003Y-1038217D01*
X11145443Y-1038217D01*
G37*
G36*
X11409603Y-1355714D02*
G01*
X11409603Y-1508114D01*
X11104803Y-1508114D01*
X11104803Y-1355714D01*
G37*
G36*
X10911761Y-1247764D02*
G01*
X11038761Y-1247764D01*
X11038761Y-1311264D01*
X10911761Y-1311264D01*
G37*
G36*
X10906686Y-1400164D02*
G01*
X11160686Y-1400164D01*
X11160686Y-1463664D01*
X10906686Y-1463664D01*
G37*
G36*
X10911761Y-1552564D02*
G01*
X11038761Y-1552564D01*
X11038761Y-1616064D01*
X10911761Y-1616064D01*
G37*
D17*
G01*
X8943921Y-1241414D03*
G01*
X8943921Y-1012814D03*
G01*
X9667821Y-1012814D03*
G01*
X9667821Y-1241414D03*
G01*
X9426521Y-1012814D03*
G01*
X9426521Y-1241414D03*
G01*
X9185221Y-1012814D03*
G01*
X9185221Y-1241414D03*
G36*
X7661221Y-923914D02*
G01*
X7839021Y-923914D01*
X7839021Y-1228714D01*
X7661221Y-1228714D01*
G37*
G36*
X8118421Y-923914D02*
G01*
X8296221Y-923914D01*
X8296221Y-1228714D01*
X8118421Y-1228714D01*
G37*
G36*
X7661221Y-1317614D02*
G01*
X7839021Y-1317614D01*
X7839021Y-1622414D01*
X7661221Y-1622414D01*
G37*
G36*
X8118421Y-1317614D02*
G01*
X8296221Y-1317614D01*
X8296221Y-1622414D01*
X8118421Y-1622414D01*
G37*
D16*
G01*
X8684839Y-898514D03*
G01*
X8491804Y-898514D03*
G36*
X8634039Y-1165214D02*
G01*
X8542604Y-1165214D01*
X8542604Y-1038214D01*
X8634039Y-1038214D01*
G37*
G36*
X8898204Y-1355714D02*
G01*
X8898204Y-1508114D01*
X8593404Y-1508114D01*
X8593404Y-1355714D01*
G37*
G36*
X8400356Y-1247764D02*
G01*
X8527356Y-1247764D01*
X8527356Y-1311264D01*
X8400356Y-1311264D01*
G37*
G36*
X8395274Y-1400164D02*
G01*
X8649274Y-1400164D01*
X8649274Y-1463664D01*
X8395274Y-1463664D01*
G37*
G36*
X8400356Y-1552564D02*
G01*
X8527356Y-1552564D01*
X8527356Y-1616064D01*
X8400356Y-1616064D01*
G37*
D17*
G01*
X6432516Y-1241412D03*
G01*
X6432516Y-1012812D03*
G01*
X7156416Y-1012812D03*
G01*
X7156416Y-1241412D03*
G01*
X6915116Y-1012812D03*
G01*
X6915116Y-1241412D03*
G01*
X6673816Y-1012812D03*
G01*
X6673816Y-1241412D03*
G36*
X5149816Y-923912D02*
G01*
X5327616Y-923912D01*
X5327616Y-1228712D01*
X5149816Y-1228712D01*
G37*
G36*
X5607016Y-923912D02*
G01*
X5784816Y-923912D01*
X5784816Y-1228712D01*
X5607016Y-1228712D01*
G37*
G36*
X5149816Y-1317612D02*
G01*
X5327616Y-1317612D01*
X5327616Y-1622412D01*
X5149816Y-1622412D01*
G37*
G36*
X5607016Y-1317612D02*
G01*
X5784816Y-1317612D01*
X5784816Y-1622412D01*
X5607016Y-1622412D01*
G37*
D16*
G01*
X6173436Y-898512D03*
G01*
X5980399Y-898512D03*
G36*
X6122636Y-1165212D02*
G01*
X6031199Y-1165212D01*
X6031199Y-1038214D01*
X6122636Y-1038214D01*
G37*
G36*
X6386799Y-1355712D02*
G01*
X6386799Y-1508112D01*
X6081999Y-1508112D01*
X6081999Y-1355712D01*
G37*
G36*
X5888954Y-1247762D02*
G01*
X6015954Y-1247762D01*
X6015956Y-1311262D01*
X5888954Y-1311262D01*
G37*
G36*
X5883882Y-1400162D02*
G01*
X6137882Y-1400162D01*
X6137882Y-1463662D01*
X5883882Y-1463662D01*
G37*
G36*
X5888954Y-1552562D02*
G01*
X6015956Y-1552562D01*
X6015954Y-1616062D01*
X5888954Y-1616062D01*
G37*
D17*
G01*
X3921114Y-1241407D03*
G01*
X3921114Y-1012807D03*
G01*
X4645014Y-1012807D03*
G01*
X4645014Y-1241407D03*
G01*
X4403714Y-1012807D03*
G01*
X4403714Y-1241407D03*
G01*
X4162414Y-1012807D03*
G01*
X4162414Y-1241407D03*
G36*
X2638414Y-923907D02*
G01*
X2816214Y-923907D01*
X2816214Y-1228707D01*
X2638414Y-1228707D01*
G37*
G36*
X3095614Y-923907D02*
G01*
X3273414Y-923907D01*
X3273414Y-1228707D01*
X3095614Y-1228707D01*
G37*
G36*
X2638414Y-1317607D02*
G01*
X2816214Y-1317607D01*
X2816214Y-1622407D01*
X2638414Y-1622407D01*
G37*
G36*
X3095614Y-1317607D02*
G01*
X3273414Y-1317607D01*
X3273414Y-1622407D01*
X3095614Y-1622407D01*
G37*
D16*
G01*
X3662027Y-898507D03*
G01*
X3468997Y-898507D03*
G36*
X3611227Y-1165207D02*
G01*
X3519797Y-1165207D01*
X3519797Y-1038212D01*
X3611227Y-1038212D01*
G37*
G36*
X3875397Y-1355707D02*
G01*
X3875397Y-1508107D01*
X3570597Y-1508107D01*
X3570597Y-1355707D01*
G37*
G36*
X3377544Y-1247757D02*
G01*
X3504544Y-1247757D01*
X3504554Y-1311257D01*
X3377544Y-1311257D01*
G37*
G36*
X3372479Y-1400157D02*
G01*
X3626479Y-1400157D01*
X3626479Y-1463657D01*
X3372479Y-1463657D01*
G37*
G36*
X3377544Y-1552557D02*
G01*
X3504554Y-1552557D01*
X3504544Y-1616057D01*
X3377544Y-1616057D01*
G37*
G36*
X3875377Y6505498D02*
G01*
X3875377Y6353098D01*
X3570577Y6353098D01*
X3570577Y6505498D01*
G37*
G36*
X3377529Y6613448D02*
G01*
X3504529Y6613448D01*
X3504539Y6549948D01*
X3377529Y6549948D01*
G37*
G36*
X3372459Y6461048D02*
G01*
X3626459Y6461048D01*
X3626459Y6397548D01*
X3372459Y6397548D01*
G37*
G36*
X3377529Y6308648D02*
G01*
X3504539Y6308648D01*
X3504529Y6245148D01*
X3377529Y6245148D01*
G37*
G01*
X3662011Y6962698D03*
G01*
X3468977Y6962698D03*
G36*
X3611211Y6695998D02*
G01*
X3519777Y6695998D01*
X3519777Y6822993D01*
X3611211Y6822993D01*
G37*
G36*
X2638394Y6543598D02*
G01*
X2816194Y6543598D01*
X2816194Y6238798D01*
X2638394Y6238798D01*
G37*
G36*
X3095594Y6543598D02*
G01*
X3273394Y6543598D01*
X3273394Y6238798D01*
X3095594Y6238798D01*
G37*
G36*
X2638394Y6937298D02*
G01*
X2816194Y6937298D01*
X2816194Y6632498D01*
X2638394Y6632498D01*
G37*
G36*
X3095594Y6937298D02*
G01*
X3273394Y6937298D01*
X3273394Y6632498D01*
X3095594Y6632498D01*
G37*
D17*
G01*
X4162394Y6848398D03*
G01*
X4162394Y6619798D03*
G01*
X4403694Y6848398D03*
G01*
X4403694Y6619798D03*
G01*
X4644994Y6848398D03*
G01*
X4644994Y6619798D03*
G01*
X3921094Y6619798D03*
G01*
X3921094Y6848398D03*
G36*
X6386779Y6505493D02*
G01*
X6386779Y6353093D01*
X6081979Y6353093D01*
X6081979Y6505493D01*
G37*
G36*
X5888936Y6613443D02*
G01*
X6015936Y6613443D01*
X6015941Y6549943D01*
X5888936Y6549943D01*
G37*
G36*
X5883861Y6461043D02*
G01*
X6137861Y6461043D01*
X6137861Y6397543D01*
X5883861Y6397543D01*
G37*
G36*
X5888936Y6308643D02*
G01*
X6015941Y6308643D01*
X6015936Y6245143D01*
X5888936Y6245143D01*
G37*
D16*
G01*
X6173416Y6962693D03*
G01*
X5980379Y6962693D03*
G36*
X6122616Y6695993D02*
G01*
X6031179Y6695993D01*
X6031179Y6822991D01*
X6122616Y6822991D01*
G37*
G36*
X5149796Y6543593D02*
G01*
X5327596Y6543593D01*
X5327596Y6238793D01*
X5149796Y6238793D01*
G37*
G36*
X5606996Y6543593D02*
G01*
X5784796Y6543593D01*
X5784796Y6238793D01*
X5606996Y6238793D01*
G37*
G36*
X5149796Y6937293D02*
G01*
X5327596Y6937293D01*
X5327596Y6632493D01*
X5149796Y6632493D01*
G37*
G36*
X5606996Y6937293D02*
G01*
X5784796Y6937293D01*
X5784796Y6632493D01*
X5606996Y6632493D01*
G37*
D17*
G01*
X6673796Y6848393D03*
G01*
X6673796Y6619793D03*
G01*
X6915096Y6848393D03*
G01*
X6915096Y6619793D03*
G01*
X7156396Y6848393D03*
G01*
X7156396Y6619793D03*
G01*
X6432496Y6619793D03*
G01*
X6432496Y6848393D03*
G36*
X8898186Y6505491D02*
G01*
X8898186Y6353091D01*
X8593386Y6353091D01*
X8593386Y6505491D01*
G37*
G36*
X8400341Y6613441D02*
G01*
X8527341Y6613441D01*
X8527341Y6549941D01*
X8400341Y6549941D01*
G37*
G36*
X8395258Y6461041D02*
G01*
X8649258Y6461041D01*
X8649258Y6397541D01*
X8395258Y6397541D01*
G37*
G36*
X8400341Y6308641D02*
G01*
X8527341Y6308641D01*
X8527341Y6245141D01*
X8400341Y6245141D01*
G37*
D16*
G01*
X8684823Y6962691D03*
G01*
X8491786Y6962691D03*
G36*
X8634023Y6695991D02*
G01*
X8542586Y6695991D01*
X8542586Y6822991D01*
X8634023Y6822991D01*
G37*
G36*
X7661203Y6543591D02*
G01*
X7839003Y6543591D01*
X7839003Y6238791D01*
X7661203Y6238791D01*
G37*
G36*
X8118403Y6543591D02*
G01*
X8296203Y6543591D01*
X8296203Y6238791D01*
X8118403Y6238791D01*
G37*
G36*
X7661203Y6937291D02*
G01*
X7839003Y6937291D01*
X7839003Y6632491D01*
X7661203Y6632491D01*
G37*
G36*
X8118403Y6937291D02*
G01*
X8296203Y6937291D01*
X8296203Y6632491D01*
X8118403Y6632491D01*
G37*
D17*
G01*
X9185203Y6848391D03*
G01*
X9185203Y6619791D03*
G01*
X9426503Y6848391D03*
G01*
X9426503Y6619791D03*
G01*
X9667803Y6848391D03*
G01*
X9667803Y6619791D03*
G01*
X8943903Y6619791D03*
G01*
X8943903Y6848391D03*
G36*
X11409583Y6505491D02*
G01*
X11409583Y6353091D01*
X11104783Y6353091D01*
X11104783Y6505491D01*
G37*
G36*
X10911746Y6613441D02*
G01*
X11038746Y6613441D01*
X11038746Y6549941D01*
X10911746Y6549941D01*
G37*
G36*
X10906666Y6461041D02*
G01*
X11160666Y6461041D01*
X11160666Y6397541D01*
X10906666Y6397541D01*
G37*
G36*
X10911746Y6308641D02*
G01*
X11038746Y6308641D01*
X11038746Y6245141D01*
X10911746Y6245141D01*
G37*
D16*
G01*
X11196228Y6962691D03*
G01*
X11003183Y6962691D03*
G36*
X11145428Y6695991D02*
G01*
X11053983Y6695991D01*
X11053983Y6822988D01*
X11145428Y6822988D01*
G37*
G36*
X10172603Y6543591D02*
G01*
X10350403Y6543591D01*
X10350403Y6238791D01*
X10172603Y6238791D01*
G37*
G36*
X10629803Y6543591D02*
G01*
X10807603Y6543591D01*
X10807603Y6238791D01*
X10629803Y6238791D01*
G37*
G36*
X10172603Y6937291D02*
G01*
X10350403Y6937291D01*
X10350403Y6632491D01*
X10172603Y6632491D01*
G37*
G36*
X10629803Y6937291D02*
G01*
X10807603Y6937291D01*
X10807603Y6632491D01*
X10629803Y6632491D01*
G37*
D17*
G01*
X11696603Y6848391D03*
G01*
X11696603Y6619791D03*
G01*
X11937903Y6848391D03*
G01*
X11937903Y6619791D03*
G01*
X12179203Y6848391D03*
G01*
X12179203Y6619791D03*
G01*
X11455303Y6619791D03*
G01*
X11455303Y6848391D03*
G01*
X1409684Y6848398D03*
G01*
X1409684Y6619798D03*
G01*
X2133584Y6619798D03*
G01*
X2133584Y6848398D03*
G01*
X1892284Y6619798D03*
G01*
X1892284Y6848398D03*
G01*
X1650984Y6619798D03*
G01*
X1650984Y6848398D03*
G36*
X584184Y6937298D02*
G01*
X761984Y6937298D01*
X761984Y6632498D01*
X584184Y6632498D01*
G37*
G36*
X126984Y6937298D02*
G01*
X304784Y6937298D01*
X304784Y6632498D01*
X126984Y6632498D01*
G37*
G36*
X584184Y6543598D02*
G01*
X761984Y6543598D01*
X761984Y6238798D01*
X584184Y6238798D01*
G37*
G36*
X126984Y6543598D02*
G01*
X304784Y6543598D01*
X304784Y6238798D01*
X126984Y6238798D01*
G37*
D16*
G01*
X957564Y6962698D03*
G36*
X1099804Y6695998D02*
G01*
X1008364Y6695998D01*
X1008364Y6822996D01*
X1099804Y6822996D01*
G37*
G01*
X1150604Y6962698D03*
G36*
X866124Y6613448D02*
G01*
X993124Y6613448D01*
X993127Y6549948D01*
X866124Y6549948D01*
G37*
G36*
X861044Y6461048D02*
G01*
X1115044Y6461048D01*
X1115044Y6397548D01*
X861044Y6397548D01*
G37*
G36*
X866124Y6308648D02*
G01*
X993127Y6308648D01*
X993124Y6245148D01*
X866124Y6245148D01*
G37*
G36*
X1363964Y6505498D02*
G01*
X1363964Y6353098D01*
X1059164Y6353098D01*
X1059164Y6505498D01*
G37*
M02*
