G04 Layer: TopSilkLayer*
G04 EasyEDA v6.4.20.5, 2021-07-08T19:51:02+08:00*
G04 9fc62b59898d4f10b595c4665fefa585,e7bc534dc2744323a0f9b62094545a88,10*
G04 Gerber Generator version 0.2*
G04 Scale: 100 percent, Rotated: No, Reflected: No *
G04 Dimensions in millimeters *
G04 leading zeros omitted , absolute positions ,4 integer and 5 decimal *
%FSLAX45Y45*%
%MOMM*%

%ADD10C,0.2540*%
%ADD22C,0.2000*%
%ADD23C,0.2032*%
%ADD24C,0.2030*%

%LPD*%
D23*
X1104884Y6151676D02*
G01*
X1104884Y5957874D01*
X1104884Y5957874D02*
G01*
X1215628Y5957874D01*
X1332214Y6151676D02*
G01*
X1313672Y6142532D01*
X1295130Y6123990D01*
X1285986Y6105448D01*
X1276588Y6077762D01*
X1276588Y6031788D01*
X1285986Y6003848D01*
X1295130Y5985560D01*
X1313672Y5967018D01*
X1332214Y5957874D01*
X1369044Y5957874D01*
X1387586Y5967018D01*
X1405874Y5985560D01*
X1415272Y6003848D01*
X1424416Y6031788D01*
X1424416Y6077762D01*
X1415272Y6105448D01*
X1405874Y6123990D01*
X1387586Y6142532D01*
X1369044Y6151676D01*
X1332214Y6151676D01*
X1485376Y6151676D02*
G01*
X1485376Y5957874D01*
X1485376Y6151676D02*
G01*
X1614662Y5957874D01*
X1614662Y6151676D02*
G01*
X1614662Y5957874D01*
X1814306Y6105448D02*
G01*
X1804908Y6123990D01*
X1786620Y6142532D01*
X1768078Y6151676D01*
X1730994Y6151676D01*
X1712706Y6142532D01*
X1694164Y6123990D01*
X1685020Y6105448D01*
X1675622Y6077762D01*
X1675622Y6031788D01*
X1685020Y6003848D01*
X1694164Y5985560D01*
X1712706Y5967018D01*
X1730994Y5957874D01*
X1768078Y5957874D01*
X1786620Y5967018D01*
X1804908Y5985560D01*
X1814306Y6003848D01*
X1814306Y6031788D01*
X1768078Y6031788D02*
G01*
X1814306Y6031788D01*
X3616294Y6151671D02*
G01*
X3616294Y5957874D01*
X3616294Y5957874D02*
G01*
X3727041Y5957874D01*
X3843627Y6151671D02*
G01*
X3825079Y6142532D01*
X3806543Y6123990D01*
X3797393Y6105448D01*
X3787995Y6077757D01*
X3787995Y6031783D01*
X3797393Y6003848D01*
X3806543Y5985555D01*
X3825079Y5967013D01*
X3843627Y5957874D01*
X3880459Y5957874D01*
X3898993Y5967013D01*
X3917279Y5985555D01*
X3926679Y6003848D01*
X3935826Y6031783D01*
X3935826Y6077757D01*
X3926679Y6105448D01*
X3917279Y6123990D01*
X3898993Y6142532D01*
X3880459Y6151671D01*
X3843627Y6151671D01*
X3996791Y6151671D02*
G01*
X3996791Y5957874D01*
X3996791Y6151671D02*
G01*
X4126075Y5957874D01*
X4126075Y6151671D02*
G01*
X4126075Y5957874D01*
X4325713Y6105448D02*
G01*
X4316313Y6123990D01*
X4298027Y6142532D01*
X4279491Y6151671D01*
X4242409Y6151671D01*
X4224113Y6142532D01*
X4205577Y6123990D01*
X4196427Y6105448D01*
X4187029Y6077757D01*
X4187029Y6031783D01*
X4196427Y6003848D01*
X4205577Y5985555D01*
X4224113Y5967013D01*
X4242409Y5957874D01*
X4279491Y5957874D01*
X4298027Y5967013D01*
X4316313Y5985555D01*
X4325713Y6003848D01*
X4325713Y6031783D01*
X4279491Y6031783D02*
G01*
X4325713Y6031783D01*
X6127696Y6151674D02*
G01*
X6127696Y5957872D01*
X6127696Y5957872D02*
G01*
X6238443Y5957872D01*
X6355029Y6151674D02*
G01*
X6336484Y6142530D01*
X6317945Y6123985D01*
X6308798Y6105443D01*
X6299400Y6077757D01*
X6299400Y6031783D01*
X6308798Y6003843D01*
X6317945Y5985553D01*
X6336484Y5967011D01*
X6355029Y5957872D01*
X6391861Y5957872D01*
X6410398Y5967011D01*
X6428686Y5985553D01*
X6438084Y6003843D01*
X6447228Y6031783D01*
X6447228Y6077757D01*
X6438084Y6105443D01*
X6428686Y6123985D01*
X6410398Y6142530D01*
X6391861Y6151674D01*
X6355029Y6151674D01*
X6508188Y6151674D02*
G01*
X6508188Y5957872D01*
X6508188Y6151674D02*
G01*
X6637477Y5957872D01*
X6637477Y6151674D02*
G01*
X6637477Y5957872D01*
X6837118Y6105443D02*
G01*
X6827720Y6123985D01*
X6809430Y6142530D01*
X6790893Y6151674D01*
X6753811Y6151674D01*
X6735518Y6142530D01*
X6716979Y6123985D01*
X6707830Y6105443D01*
X6698434Y6077757D01*
X6698434Y6031783D01*
X6707830Y6003843D01*
X6716979Y5985553D01*
X6735518Y5967011D01*
X6753811Y5957872D01*
X6790893Y5957872D01*
X6809430Y5967011D01*
X6827720Y5985553D01*
X6837118Y6003843D01*
X6837118Y6031783D01*
X6790893Y6031783D02*
G01*
X6837118Y6031783D01*
X8639103Y6151671D02*
G01*
X8639103Y5957867D01*
X8639103Y5957867D02*
G01*
X8749852Y5957867D01*
X8866436Y6151671D02*
G01*
X8847891Y6142525D01*
X8829342Y6123983D01*
X8820205Y6105441D01*
X8810807Y6077757D01*
X8810807Y6031783D01*
X8820205Y6003841D01*
X8829342Y5985555D01*
X8847891Y5967013D01*
X8866436Y5957867D01*
X8903258Y5957867D01*
X8921805Y5967013D01*
X8940091Y5985555D01*
X8949491Y6003841D01*
X8958638Y6031783D01*
X8958638Y6077757D01*
X8949491Y6105441D01*
X8940091Y6123983D01*
X8921805Y6142525D01*
X8903258Y6151671D01*
X8866436Y6151671D01*
X9019593Y6151671D02*
G01*
X9019593Y5957867D01*
X9019593Y6151671D02*
G01*
X9148876Y5957867D01*
X9148876Y6151671D02*
G01*
X9148876Y5957867D01*
X9348523Y6105441D02*
G01*
X9339135Y6123983D01*
X9320839Y6142525D01*
X9302302Y6151671D01*
X9265208Y6151671D01*
X9246923Y6142525D01*
X9228386Y6123983D01*
X9219239Y6105441D01*
X9209841Y6077757D01*
X9209841Y6031783D01*
X9219239Y6003841D01*
X9228386Y5985555D01*
X9246923Y5967013D01*
X9265208Y5957867D01*
X9302302Y5957867D01*
X9320839Y5967013D01*
X9339135Y5985555D01*
X9348523Y6003841D01*
X9348523Y6031783D01*
X9302302Y6031783D02*
G01*
X9348523Y6031783D01*
X11150503Y6151669D02*
G01*
X11150503Y5957867D01*
X11150503Y5957867D02*
G01*
X11261247Y5957867D01*
X11377833Y6151669D02*
G01*
X11359296Y6142525D01*
X11340749Y6123983D01*
X11331610Y6105441D01*
X11322212Y6077752D01*
X11322212Y6031778D01*
X11331610Y6003841D01*
X11340749Y5985553D01*
X11359296Y5967011D01*
X11377833Y5957867D01*
X11414666Y5957867D01*
X11433210Y5967011D01*
X11451496Y5985553D01*
X11460896Y6003841D01*
X11470035Y6031778D01*
X11470035Y6077752D01*
X11460896Y6105441D01*
X11451496Y6123983D01*
X11433210Y6142525D01*
X11414666Y6151669D01*
X11377833Y6151669D01*
X11530998Y6151669D02*
G01*
X11530998Y5957867D01*
X11530998Y6151669D02*
G01*
X11660281Y5957867D01*
X11660281Y6151669D02*
G01*
X11660281Y5957867D01*
X11859928Y6105441D02*
G01*
X11850530Y6123983D01*
X11832244Y6142525D01*
X11813697Y6151669D01*
X11776616Y6151669D01*
X11758328Y6142525D01*
X11739783Y6123983D01*
X11730644Y6105441D01*
X11721246Y6077752D01*
X11721246Y6031778D01*
X11730644Y6003841D01*
X11739783Y5985553D01*
X11758328Y5967011D01*
X11776616Y5957867D01*
X11813697Y5957867D01*
X11832244Y5967011D01*
X11850530Y5985553D01*
X11859928Y6003841D01*
X11859928Y6031778D01*
X11813697Y6031778D02*
G01*
X11859928Y6031778D01*
X11150511Y4186369D02*
G01*
X11150511Y3992567D01*
X11150511Y3992567D02*
G01*
X11261250Y3992567D01*
X11377836Y4186369D02*
G01*
X11359299Y4177225D01*
X11340752Y4158683D01*
X11331613Y4140141D01*
X11322215Y4112453D01*
X11322215Y4066479D01*
X11331613Y4038541D01*
X11340752Y4020253D01*
X11359299Y4001711D01*
X11377836Y3992567D01*
X11414668Y3992567D01*
X11433213Y4001711D01*
X11451498Y4020253D01*
X11460899Y4038541D01*
X11470045Y4066479D01*
X11470045Y4112453D01*
X11460899Y4140141D01*
X11451498Y4158683D01*
X11433213Y4177225D01*
X11414668Y4186369D01*
X11377836Y4186369D01*
X11531000Y4186369D02*
G01*
X11531000Y3992567D01*
X11531000Y4186369D02*
G01*
X11660284Y3992567D01*
X11660284Y4186369D02*
G01*
X11660284Y3992567D01*
X11859930Y4140141D02*
G01*
X11850532Y4158683D01*
X11832247Y4177225D01*
X11813700Y4186369D01*
X11776618Y4186369D01*
X11758330Y4177225D01*
X11739786Y4158683D01*
X11730647Y4140141D01*
X11721249Y4112453D01*
X11721249Y4066479D01*
X11730647Y4038541D01*
X11739786Y4020253D01*
X11758330Y4001711D01*
X11776618Y3992567D01*
X11813700Y3992567D01*
X11832247Y4001711D01*
X11850532Y4020253D01*
X11859930Y4038541D01*
X11859930Y4066479D01*
X11813700Y4066479D02*
G01*
X11859930Y4066479D01*
X8639108Y4186372D02*
G01*
X8639108Y3992567D01*
X8639108Y3992567D02*
G01*
X8749858Y3992567D01*
X8866441Y4186372D02*
G01*
X8847894Y4177225D01*
X8829347Y4158683D01*
X8820210Y4140141D01*
X8810810Y4112458D01*
X8810810Y4066484D01*
X8820210Y4038541D01*
X8829347Y4020256D01*
X8847894Y4001714D01*
X8866441Y3992567D01*
X8903263Y3992567D01*
X8921810Y4001714D01*
X8940093Y4020256D01*
X8949494Y4038541D01*
X8958643Y4066484D01*
X8958643Y4112458D01*
X8949494Y4140141D01*
X8940093Y4158683D01*
X8921810Y4177225D01*
X8903263Y4186372D01*
X8866441Y4186372D01*
X9019595Y4186372D02*
G01*
X9019595Y3992567D01*
X9019595Y4186372D02*
G01*
X9148879Y3992567D01*
X9148879Y4186372D02*
G01*
X9148879Y3992567D01*
X9348528Y4140141D02*
G01*
X9339140Y4158683D01*
X9320844Y4177225D01*
X9302308Y4186372D01*
X9265213Y4186372D01*
X9246928Y4177225D01*
X9228391Y4158683D01*
X9219244Y4140141D01*
X9209844Y4112458D01*
X9209844Y4066484D01*
X9219244Y4038541D01*
X9228391Y4020256D01*
X9246928Y4001714D01*
X9265213Y3992567D01*
X9302308Y3992567D01*
X9320844Y4001714D01*
X9339140Y4020256D01*
X9348528Y4038541D01*
X9348528Y4066484D01*
X9302308Y4066484D02*
G01*
X9348528Y4066484D01*
X6127699Y4186374D02*
G01*
X6127699Y3992572D01*
X6127699Y3992572D02*
G01*
X6238445Y3992572D01*
X6355031Y4186374D02*
G01*
X6336492Y4177230D01*
X6317947Y4158686D01*
X6308808Y4140144D01*
X6299408Y4112458D01*
X6299408Y4066484D01*
X6308808Y4038544D01*
X6317947Y4020253D01*
X6336492Y4001711D01*
X6355031Y3992572D01*
X6391864Y3992572D01*
X6410408Y4001711D01*
X6428691Y4020253D01*
X6438092Y4038544D01*
X6447231Y4066484D01*
X6447231Y4112458D01*
X6438092Y4140144D01*
X6428691Y4158686D01*
X6410408Y4177230D01*
X6391864Y4186374D01*
X6355031Y4186374D01*
X6508193Y4186374D02*
G01*
X6508193Y3992572D01*
X6508193Y4186374D02*
G01*
X6637479Y3992572D01*
X6637479Y4186374D02*
G01*
X6637479Y3992572D01*
X6837126Y4140144D02*
G01*
X6827725Y4158686D01*
X6809432Y4177230D01*
X6790895Y4186374D01*
X6753814Y4186374D01*
X6735526Y4177230D01*
X6716981Y4158686D01*
X6707832Y4140144D01*
X6698442Y4112458D01*
X6698442Y4066484D01*
X6707832Y4038544D01*
X6716981Y4020253D01*
X6735526Y4001711D01*
X6753814Y3992572D01*
X6790895Y3992572D01*
X6809432Y4001711D01*
X6827725Y4020253D01*
X6837126Y4038544D01*
X6837126Y4066484D01*
X6790895Y4066484D02*
G01*
X6837126Y4066484D01*
X3616297Y4186372D02*
G01*
X3616297Y3992575D01*
X3616297Y3992575D02*
G01*
X3727043Y3992575D01*
X3843629Y4186372D02*
G01*
X3825082Y4177233D01*
X3806545Y4158691D01*
X3797396Y4140149D01*
X3787998Y4112458D01*
X3787998Y4066484D01*
X3797396Y4038549D01*
X3806545Y4020256D01*
X3825082Y4001714D01*
X3843629Y3992575D01*
X3880462Y3992575D01*
X3898996Y4001714D01*
X3917281Y4020256D01*
X3926682Y4038549D01*
X3935829Y4066484D01*
X3935829Y4112458D01*
X3926682Y4140149D01*
X3917281Y4158691D01*
X3898996Y4177233D01*
X3880462Y4186372D01*
X3843629Y4186372D01*
X3996794Y4186372D02*
G01*
X3996794Y3992575D01*
X3996794Y4186372D02*
G01*
X4126077Y3992575D01*
X4126077Y4186372D02*
G01*
X4126077Y3992575D01*
X4325724Y4140149D02*
G01*
X4316315Y4158691D01*
X4298030Y4177233D01*
X4279493Y4186372D01*
X4242412Y4186372D01*
X4224124Y4177233D01*
X4205579Y4158691D01*
X4196430Y4140149D01*
X4187032Y4112458D01*
X4187032Y4066484D01*
X4196430Y4038549D01*
X4205579Y4020256D01*
X4224124Y4001714D01*
X4242412Y3992575D01*
X4279493Y3992575D01*
X4298030Y4001714D01*
X4316315Y4020256D01*
X4325724Y4038549D01*
X4325724Y4066484D01*
X4279493Y4066484D02*
G01*
X4325724Y4066484D01*
X1104892Y4186377D02*
G01*
X1104892Y3992575D01*
X1104892Y3992575D02*
G01*
X1215631Y3992575D01*
X1332224Y4186377D02*
G01*
X1313675Y4177233D01*
X1295140Y4158691D01*
X1285991Y4140149D01*
X1276593Y4112463D01*
X1276593Y4066489D01*
X1285991Y4038549D01*
X1295140Y4020261D01*
X1313675Y4001719D01*
X1332224Y3992575D01*
X1369047Y3992575D01*
X1387591Y4001719D01*
X1405877Y4020261D01*
X1415275Y4038549D01*
X1424424Y4066489D01*
X1424424Y4112463D01*
X1415275Y4140149D01*
X1405877Y4158691D01*
X1387591Y4177233D01*
X1369047Y4186377D01*
X1332224Y4186377D01*
X1485379Y4186377D02*
G01*
X1485379Y3992575D01*
X1485379Y4186377D02*
G01*
X1614665Y3992575D01*
X1614665Y4186377D02*
G01*
X1614665Y3992575D01*
X1814309Y4140149D02*
G01*
X1804911Y4158691D01*
X1786625Y4177233D01*
X1768081Y4186377D01*
X1730997Y4186377D01*
X1712709Y4177233D01*
X1694174Y4158691D01*
X1685025Y4140149D01*
X1675625Y4112463D01*
X1675625Y4066489D01*
X1685025Y4038549D01*
X1694174Y4020261D01*
X1712709Y4001719D01*
X1730997Y3992575D01*
X1768081Y3992575D01*
X1786625Y4001719D01*
X1804911Y4020261D01*
X1814309Y4038549D01*
X1814309Y4066489D01*
X1768081Y4066489D02*
G01*
X1814309Y4066489D01*
X11150518Y2221069D02*
G01*
X11150518Y2027267D01*
X11150518Y2027267D02*
G01*
X11261262Y2027267D01*
X11377848Y2221069D02*
G01*
X11359311Y2211925D01*
X11340764Y2193383D01*
X11331625Y2174841D01*
X11322227Y2147153D01*
X11322227Y2101179D01*
X11331625Y2073241D01*
X11340764Y2054953D01*
X11359311Y2036411D01*
X11377848Y2027267D01*
X11414681Y2027267D01*
X11433225Y2036411D01*
X11451511Y2054953D01*
X11460911Y2073241D01*
X11470050Y2101179D01*
X11470050Y2147153D01*
X11460911Y2174841D01*
X11451511Y2193383D01*
X11433225Y2211925D01*
X11414681Y2221069D01*
X11377848Y2221069D01*
X11531013Y2221069D02*
G01*
X11531013Y2027267D01*
X11531013Y2221069D02*
G01*
X11660296Y2027267D01*
X11660296Y2221069D02*
G01*
X11660296Y2027267D01*
X11859943Y2174841D02*
G01*
X11850545Y2193383D01*
X11832259Y2211925D01*
X11813712Y2221069D01*
X11776631Y2221069D01*
X11758343Y2211925D01*
X11739798Y2193383D01*
X11730659Y2174841D01*
X11721261Y2147153D01*
X11721261Y2101179D01*
X11730659Y2073241D01*
X11739798Y2054953D01*
X11758343Y2036411D01*
X11776631Y2027267D01*
X11813712Y2027267D01*
X11832259Y2036411D01*
X11850545Y2054953D01*
X11859943Y2073241D01*
X11859943Y2101179D01*
X11813712Y2101179D02*
G01*
X11859943Y2101179D01*
X8639119Y2221072D02*
G01*
X8639119Y2027267D01*
X8639119Y2027267D02*
G01*
X8749868Y2027267D01*
X8866451Y2221072D02*
G01*
X8847907Y2211925D01*
X8829357Y2193383D01*
X8820221Y2174841D01*
X8810823Y2147158D01*
X8810823Y2101184D01*
X8820221Y2073241D01*
X8829357Y2054956D01*
X8847907Y2036414D01*
X8866451Y2027267D01*
X8903274Y2027267D01*
X8921821Y2036414D01*
X8940106Y2054956D01*
X8949507Y2073241D01*
X8958653Y2101184D01*
X8958653Y2147158D01*
X8949507Y2174841D01*
X8940106Y2193383D01*
X8921821Y2211925D01*
X8903274Y2221072D01*
X8866451Y2221072D01*
X9019608Y2221072D02*
G01*
X9019608Y2027267D01*
X9019608Y2221072D02*
G01*
X9148892Y2027267D01*
X9148892Y2221072D02*
G01*
X9148892Y2027267D01*
X9348538Y2174841D02*
G01*
X9339150Y2193383D01*
X9320855Y2211925D01*
X9302318Y2221072D01*
X9265224Y2221072D01*
X9246938Y2211925D01*
X9228401Y2193383D01*
X9219255Y2174841D01*
X9209857Y2147158D01*
X9209857Y2101184D01*
X9219255Y2073241D01*
X9228401Y2054956D01*
X9246938Y2036414D01*
X9265224Y2027267D01*
X9302318Y2027267D01*
X9320855Y2036414D01*
X9339150Y2054956D01*
X9348538Y2073241D01*
X9348538Y2101184D01*
X9302318Y2101184D02*
G01*
X9348538Y2101184D01*
X6127711Y2221075D02*
G01*
X6127711Y2027273D01*
X6127711Y2027273D02*
G01*
X6238458Y2027273D01*
X6355044Y2221075D02*
G01*
X6336499Y2211931D01*
X6317960Y2193386D01*
X6308813Y2174844D01*
X6299415Y2147158D01*
X6299415Y2101184D01*
X6308813Y2073244D01*
X6317960Y2054953D01*
X6336499Y2036411D01*
X6355044Y2027273D01*
X6391876Y2027273D01*
X6410413Y2036411D01*
X6428701Y2054953D01*
X6438099Y2073244D01*
X6447243Y2101184D01*
X6447243Y2147158D01*
X6438099Y2174844D01*
X6428701Y2193386D01*
X6410413Y2211931D01*
X6391876Y2221075D01*
X6355044Y2221075D01*
X6508203Y2221075D02*
G01*
X6508203Y2027273D01*
X6508203Y2221075D02*
G01*
X6637492Y2027273D01*
X6637492Y2221075D02*
G01*
X6637492Y2027273D01*
X6837133Y2174844D02*
G01*
X6827735Y2193386D01*
X6809445Y2211931D01*
X6790908Y2221075D01*
X6753826Y2221075D01*
X6735533Y2211931D01*
X6716994Y2193386D01*
X6707845Y2174844D01*
X6698449Y2147158D01*
X6698449Y2101184D01*
X6707845Y2073244D01*
X6716994Y2054953D01*
X6735533Y2036411D01*
X6753826Y2027273D01*
X6790908Y2027273D01*
X6809445Y2036411D01*
X6827735Y2054953D01*
X6837133Y2073244D01*
X6837133Y2101184D01*
X6790908Y2101184D02*
G01*
X6837133Y2101184D01*
X3616309Y2221072D02*
G01*
X3616309Y2027275D01*
X3616309Y2027275D02*
G01*
X3727056Y2027275D01*
X3843642Y2221072D02*
G01*
X3825095Y2211933D01*
X3806558Y2193391D01*
X3797409Y2174849D01*
X3788011Y2147158D01*
X3788011Y2101184D01*
X3797409Y2073249D01*
X3806558Y2054956D01*
X3825095Y2036414D01*
X3843642Y2027275D01*
X3880474Y2027275D01*
X3899009Y2036414D01*
X3917294Y2054956D01*
X3926695Y2073249D01*
X3935841Y2101184D01*
X3935841Y2147158D01*
X3926695Y2174849D01*
X3917294Y2193391D01*
X3899009Y2211933D01*
X3880474Y2221072D01*
X3843642Y2221072D01*
X3996806Y2221072D02*
G01*
X3996806Y2027275D01*
X3996806Y2221072D02*
G01*
X4126090Y2027275D01*
X4126090Y2221072D02*
G01*
X4126090Y2027275D01*
X4325729Y2174849D02*
G01*
X4316328Y2193391D01*
X4298043Y2211933D01*
X4279506Y2221072D01*
X4242424Y2221072D01*
X4224129Y2211933D01*
X4205592Y2193391D01*
X4196443Y2174849D01*
X4187045Y2147158D01*
X4187045Y2101184D01*
X4196443Y2073249D01*
X4205592Y2054956D01*
X4224129Y2036414D01*
X4242424Y2027275D01*
X4279506Y2027275D01*
X4298043Y2036414D01*
X4316328Y2054956D01*
X4325729Y2073249D01*
X4325729Y2101184D01*
X4279506Y2101184D02*
G01*
X4325729Y2101184D01*
X1104900Y2221077D02*
G01*
X1104900Y2027275D01*
X1104900Y2027275D02*
G01*
X1215644Y2027275D01*
X1332230Y2221077D02*
G01*
X1313687Y2211933D01*
X1295146Y2193391D01*
X1286002Y2174849D01*
X1276603Y2147163D01*
X1276603Y2101189D01*
X1286002Y2073249D01*
X1295146Y2054961D01*
X1313687Y2036419D01*
X1332230Y2027275D01*
X1369060Y2027275D01*
X1387602Y2036419D01*
X1405889Y2054961D01*
X1415287Y2073249D01*
X1424432Y2101189D01*
X1424432Y2147163D01*
X1415287Y2174849D01*
X1405889Y2193391D01*
X1387602Y2211933D01*
X1369060Y2221077D01*
X1332230Y2221077D01*
X1485392Y2221077D02*
G01*
X1485392Y2027275D01*
X1485392Y2221077D02*
G01*
X1614678Y2027275D01*
X1614678Y2221077D02*
G01*
X1614678Y2027275D01*
X1814321Y2174849D02*
G01*
X1804923Y2193391D01*
X1786636Y2211933D01*
X1768094Y2221077D01*
X1731010Y2221077D01*
X1712721Y2211933D01*
X1694180Y2193391D01*
X1685036Y2174849D01*
X1675637Y2147163D01*
X1675637Y2101189D01*
X1685036Y2073249D01*
X1694180Y2054961D01*
X1712721Y2036419D01*
X1731010Y2027275D01*
X1768094Y2027275D01*
X1786636Y2036419D01*
X1804923Y2054961D01*
X1814321Y2073249D01*
X1814321Y2101189D01*
X1768094Y2101189D02*
G01*
X1814321Y2101189D01*
X11150521Y255770D02*
G01*
X11150521Y61968D01*
X11150521Y61968D02*
G01*
X11261260Y61968D01*
X11377851Y255770D02*
G01*
X11359309Y246626D01*
X11340762Y228084D01*
X11331623Y209542D01*
X11322225Y181853D01*
X11322225Y135879D01*
X11331623Y107942D01*
X11340762Y89654D01*
X11359309Y71112D01*
X11377851Y61968D01*
X11414683Y61968D01*
X11433223Y71112D01*
X11451508Y89654D01*
X11460909Y107942D01*
X11470053Y135879D01*
X11470053Y181853D01*
X11460909Y209542D01*
X11451508Y228084D01*
X11433223Y246626D01*
X11414683Y255770D01*
X11377851Y255770D01*
X11531010Y255770D02*
G01*
X11531010Y61968D01*
X11531010Y255770D02*
G01*
X11660294Y61968D01*
X11660294Y255770D02*
G01*
X11660294Y61968D01*
X11859940Y209542D02*
G01*
X11850542Y228084D01*
X11832257Y246626D01*
X11813710Y255770D01*
X11776633Y255770D01*
X11758340Y246626D01*
X11739801Y228084D01*
X11730657Y209542D01*
X11721259Y181853D01*
X11721259Y135879D01*
X11730657Y107942D01*
X11739801Y89654D01*
X11758340Y71112D01*
X11776633Y61968D01*
X11813710Y61968D01*
X11832257Y71112D01*
X11850542Y89654D01*
X11859940Y107942D01*
X11859940Y135879D01*
X11813710Y135879D02*
G01*
X11859940Y135879D01*
X8639119Y255772D02*
G01*
X8639119Y61968D01*
X8639119Y61968D02*
G01*
X8749868Y61968D01*
X8866451Y255772D02*
G01*
X8847904Y246626D01*
X8829357Y228084D01*
X8820221Y209542D01*
X8810820Y181858D01*
X8810820Y135884D01*
X8820221Y107942D01*
X8829357Y89656D01*
X8847904Y71114D01*
X8866451Y61968D01*
X8903271Y61968D01*
X8921821Y71114D01*
X8940104Y89656D01*
X8949504Y107942D01*
X8958653Y135884D01*
X8958653Y181858D01*
X8949504Y209542D01*
X8940104Y228084D01*
X8921821Y246626D01*
X8903271Y255772D01*
X8866451Y255772D01*
X9019606Y255772D02*
G01*
X9019606Y61968D01*
X9019606Y255772D02*
G01*
X9148889Y61968D01*
X9148889Y255772D02*
G01*
X9148889Y61968D01*
X9348538Y209542D02*
G01*
X9339150Y228084D01*
X9320852Y246626D01*
X9302318Y255772D01*
X9265221Y255772D01*
X9246938Y246626D01*
X9228401Y228084D01*
X9219252Y209542D01*
X9209854Y181858D01*
X9209854Y135884D01*
X9219252Y107942D01*
X9228401Y89656D01*
X9246938Y71114D01*
X9265221Y61968D01*
X9302318Y61968D01*
X9320852Y71114D01*
X9339150Y89656D01*
X9348538Y107942D01*
X9348538Y135884D01*
X9302318Y135884D02*
G01*
X9348538Y135884D01*
X6127714Y255775D02*
G01*
X6127714Y61973D01*
X6127714Y61973D02*
G01*
X6238455Y61973D01*
X6355046Y255775D02*
G01*
X6336499Y246631D01*
X6317962Y228086D01*
X6308816Y209544D01*
X6299418Y181858D01*
X6299418Y135884D01*
X6308816Y107944D01*
X6317962Y89654D01*
X6336499Y71112D01*
X6355046Y61973D01*
X6391879Y61973D01*
X6410416Y71112D01*
X6428701Y89654D01*
X6438099Y107944D01*
X6447241Y135884D01*
X6447241Y181858D01*
X6438099Y209544D01*
X6428701Y228086D01*
X6410416Y246631D01*
X6391879Y255775D01*
X6355046Y255775D01*
X6508203Y255775D02*
G01*
X6508203Y61973D01*
X6508203Y255775D02*
G01*
X6637489Y61973D01*
X6637489Y255775D02*
G01*
X6637489Y61973D01*
X6837133Y209544D02*
G01*
X6827735Y228086D01*
X6809442Y246631D01*
X6790905Y255775D01*
X6753829Y255775D01*
X6735533Y246631D01*
X6716996Y228086D01*
X6707842Y209544D01*
X6698449Y181858D01*
X6698449Y135884D01*
X6707842Y107944D01*
X6716996Y89654D01*
X6735533Y71112D01*
X6753829Y61973D01*
X6790905Y61973D01*
X6809442Y71112D01*
X6827735Y89654D01*
X6837133Y107944D01*
X6837133Y135884D01*
X6790905Y135884D02*
G01*
X6837133Y135884D01*
X3616312Y255772D02*
G01*
X3616312Y61976D01*
X3616312Y61976D02*
G01*
X3727053Y61976D01*
X3843644Y255772D02*
G01*
X3825097Y246634D01*
X3806560Y228092D01*
X3797406Y209550D01*
X3788013Y181858D01*
X3788013Y135884D01*
X3797406Y107950D01*
X3806560Y89656D01*
X3825097Y71114D01*
X3843644Y61976D01*
X3880477Y61976D01*
X3899006Y71114D01*
X3917292Y89656D01*
X3926697Y107950D01*
X3935839Y135884D01*
X3935839Y181858D01*
X3926697Y209550D01*
X3917292Y228092D01*
X3899006Y246634D01*
X3880477Y255772D01*
X3843644Y255772D01*
X3996804Y255772D02*
G01*
X3996804Y61976D01*
X3996804Y255772D02*
G01*
X4126087Y61976D01*
X4126087Y255772D02*
G01*
X4126087Y61976D01*
X4325731Y209550D02*
G01*
X4316331Y228092D01*
X4298040Y246634D01*
X4279503Y255772D01*
X4242427Y255772D01*
X4224131Y246634D01*
X4205594Y228092D01*
X4196440Y209550D01*
X4187047Y181858D01*
X4187047Y135884D01*
X4196440Y107950D01*
X4205594Y89656D01*
X4224131Y71114D01*
X4242427Y61976D01*
X4279503Y61976D01*
X4298040Y71114D01*
X4316331Y89656D01*
X4325731Y107950D01*
X4325731Y135884D01*
X4279503Y135884D02*
G01*
X4325731Y135884D01*
X1104900Y255777D02*
G01*
X1104900Y61976D01*
X1104900Y61976D02*
G01*
X1215641Y61976D01*
X1332232Y255777D02*
G01*
X1313685Y246634D01*
X1295148Y228092D01*
X1286002Y209550D01*
X1276603Y181863D01*
X1276603Y135889D01*
X1286002Y107950D01*
X1295148Y89661D01*
X1313685Y71119D01*
X1332232Y61976D01*
X1369057Y61976D01*
X1387602Y71119D01*
X1405887Y89661D01*
X1415285Y107950D01*
X1424434Y135889D01*
X1424434Y181863D01*
X1415285Y209550D01*
X1405887Y228092D01*
X1387602Y246634D01*
X1369057Y255777D01*
X1332232Y255777D01*
X1485389Y255777D02*
G01*
X1485389Y61976D01*
X1485389Y255777D02*
G01*
X1614680Y61976D01*
X1614680Y255777D02*
G01*
X1614680Y61976D01*
X1814319Y209550D02*
G01*
X1804921Y228092D01*
X1786636Y246634D01*
X1768091Y255777D01*
X1731007Y255777D01*
X1712719Y246634D01*
X1694182Y228092D01*
X1685036Y209550D01*
X1675635Y181863D01*
X1675635Y135889D01*
X1685036Y107950D01*
X1694182Y89661D01*
X1712719Y71119D01*
X1731007Y61976D01*
X1768091Y61976D01*
X1786636Y71119D01*
X1804921Y89661D01*
X1814319Y107950D01*
X1814319Y135889D01*
X1768091Y135889D02*
G01*
X1814319Y135889D01*
X11150523Y-1709536D02*
G01*
X11150523Y-1903338D01*
X11150523Y-1903338D02*
G01*
X11261262Y-1903338D01*
X11377853Y-1709536D02*
G01*
X11359311Y-1718680D01*
X11340764Y-1737222D01*
X11331625Y-1755764D01*
X11322227Y-1783453D01*
X11322227Y-1829427D01*
X11331625Y-1857364D01*
X11340764Y-1875652D01*
X11359311Y-1894194D01*
X11377853Y-1903338D01*
X11414686Y-1903338D01*
X11433225Y-1894194D01*
X11451511Y-1875652D01*
X11460911Y-1857364D01*
X11470055Y-1829427D01*
X11470055Y-1783453D01*
X11460911Y-1755764D01*
X11451511Y-1737222D01*
X11433225Y-1718680D01*
X11414686Y-1709536D01*
X11377853Y-1709536D01*
X11531013Y-1709536D02*
G01*
X11531013Y-1903338D01*
X11531013Y-1709536D02*
G01*
X11660296Y-1903338D01*
X11660296Y-1709536D02*
G01*
X11660296Y-1903338D01*
X11859943Y-1755764D02*
G01*
X11850545Y-1737222D01*
X11832259Y-1718680D01*
X11813712Y-1709536D01*
X11776636Y-1709536D01*
X11758343Y-1718680D01*
X11739803Y-1737222D01*
X11730659Y-1755764D01*
X11721261Y-1783453D01*
X11721261Y-1829427D01*
X11730659Y-1857364D01*
X11739803Y-1875652D01*
X11758343Y-1894194D01*
X11776636Y-1903338D01*
X11813712Y-1903338D01*
X11832259Y-1894194D01*
X11850545Y-1875652D01*
X11859943Y-1857364D01*
X11859943Y-1829427D01*
X11813712Y-1829427D02*
G01*
X11859943Y-1829427D01*
X8639121Y-1709534D02*
G01*
X8639121Y-1903338D01*
X8639121Y-1903338D02*
G01*
X8749870Y-1903338D01*
X8866454Y-1709534D02*
G01*
X8847907Y-1718680D01*
X8829360Y-1737222D01*
X8820223Y-1755764D01*
X8810823Y-1783448D01*
X8810823Y-1829422D01*
X8820223Y-1857364D01*
X8829360Y-1875650D01*
X8847907Y-1894192D01*
X8866454Y-1903338D01*
X8903274Y-1903338D01*
X8921823Y-1894192D01*
X8940106Y-1875650D01*
X8949507Y-1857364D01*
X8958656Y-1829422D01*
X8958656Y-1783448D01*
X8949507Y-1755764D01*
X8940106Y-1737222D01*
X8921823Y-1718680D01*
X8903274Y-1709534D01*
X8866454Y-1709534D01*
X9019608Y-1709534D02*
G01*
X9019608Y-1903338D01*
X9019608Y-1709534D02*
G01*
X9148892Y-1903338D01*
X9148892Y-1709534D02*
G01*
X9148892Y-1903338D01*
X9348541Y-1755764D02*
G01*
X9339153Y-1737222D01*
X9320855Y-1718680D01*
X9302320Y-1709534D01*
X9265224Y-1709534D01*
X9246941Y-1718680D01*
X9228404Y-1737222D01*
X9219255Y-1755764D01*
X9209857Y-1783448D01*
X9209857Y-1829422D01*
X9219255Y-1857364D01*
X9228404Y-1875650D01*
X9246941Y-1894192D01*
X9265224Y-1903338D01*
X9302320Y-1903338D01*
X9320855Y-1894192D01*
X9339153Y-1875650D01*
X9348541Y-1857364D01*
X9348541Y-1829422D01*
X9302320Y-1829422D02*
G01*
X9348541Y-1829422D01*
X6127716Y-1709531D02*
G01*
X6127716Y-1903333D01*
X6127716Y-1903333D02*
G01*
X6238458Y-1903333D01*
X6355049Y-1709531D02*
G01*
X6336502Y-1718675D01*
X6317965Y-1737220D01*
X6308818Y-1755762D01*
X6299420Y-1783448D01*
X6299420Y-1829422D01*
X6308818Y-1857362D01*
X6317965Y-1875652D01*
X6336502Y-1894194D01*
X6355049Y-1903333D01*
X6391882Y-1903333D01*
X6410418Y-1894194D01*
X6428704Y-1875652D01*
X6438102Y-1857362D01*
X6447243Y-1829422D01*
X6447243Y-1783448D01*
X6438102Y-1755762D01*
X6428704Y-1737220D01*
X6410418Y-1718675D01*
X6391882Y-1709531D01*
X6355049Y-1709531D01*
X6508206Y-1709531D02*
G01*
X6508206Y-1903333D01*
X6508206Y-1709531D02*
G01*
X6637492Y-1903333D01*
X6637492Y-1709531D02*
G01*
X6637492Y-1903333D01*
X6837136Y-1755762D02*
G01*
X6827738Y-1737220D01*
X6809445Y-1718675D01*
X6790908Y-1709531D01*
X6753832Y-1709531D01*
X6735536Y-1718675D01*
X6716999Y-1737220D01*
X6707845Y-1755762D01*
X6698452Y-1783448D01*
X6698452Y-1829422D01*
X6707845Y-1857362D01*
X6716999Y-1875652D01*
X6735536Y-1894194D01*
X6753832Y-1903333D01*
X6790908Y-1903333D01*
X6809445Y-1894194D01*
X6827738Y-1875652D01*
X6837136Y-1857362D01*
X6837136Y-1829422D01*
X6790908Y-1829422D02*
G01*
X6837136Y-1829422D01*
X3616314Y-1709534D02*
G01*
X3616314Y-1903331D01*
X3616314Y-1903331D02*
G01*
X3727056Y-1903331D01*
X3843647Y-1709534D02*
G01*
X3825100Y-1718673D01*
X3806563Y-1737215D01*
X3797409Y-1755757D01*
X3788016Y-1783448D01*
X3788016Y-1829422D01*
X3797409Y-1857357D01*
X3806563Y-1875650D01*
X3825100Y-1894192D01*
X3843647Y-1903331D01*
X3880479Y-1903331D01*
X3899009Y-1894192D01*
X3917294Y-1875650D01*
X3926700Y-1857357D01*
X3935841Y-1829422D01*
X3935841Y-1783448D01*
X3926700Y-1755757D01*
X3917294Y-1737215D01*
X3899009Y-1718673D01*
X3880479Y-1709534D01*
X3843647Y-1709534D01*
X3996806Y-1709534D02*
G01*
X3996806Y-1903331D01*
X3996806Y-1709534D02*
G01*
X4126090Y-1903331D01*
X4126090Y-1709534D02*
G01*
X4126090Y-1903331D01*
X4325734Y-1755757D02*
G01*
X4316333Y-1737215D01*
X4298043Y-1718673D01*
X4279506Y-1709534D01*
X4242429Y-1709534D01*
X4224134Y-1718673D01*
X4205597Y-1737215D01*
X4196443Y-1755757D01*
X4187050Y-1783448D01*
X4187050Y-1829422D01*
X4196443Y-1857357D01*
X4205597Y-1875650D01*
X4224134Y-1894192D01*
X4242429Y-1903331D01*
X4279506Y-1903331D01*
X4298043Y-1894192D01*
X4316333Y-1875650D01*
X4325734Y-1857357D01*
X4325734Y-1829422D01*
X4279506Y-1829422D02*
G01*
X4325734Y-1829422D01*
X1104902Y-1709529D02*
G01*
X1104902Y-1903331D01*
X1104902Y-1903331D02*
G01*
X1215644Y-1903331D01*
X1332235Y-1709529D02*
G01*
X1313687Y-1718673D01*
X1295151Y-1737215D01*
X1286004Y-1755757D01*
X1276606Y-1783443D01*
X1276606Y-1829417D01*
X1286004Y-1857357D01*
X1295151Y-1875645D01*
X1313687Y-1894187D01*
X1332235Y-1903331D01*
X1369060Y-1903331D01*
X1387604Y-1894187D01*
X1405889Y-1875645D01*
X1415287Y-1857357D01*
X1424437Y-1829417D01*
X1424437Y-1783443D01*
X1415287Y-1755757D01*
X1405889Y-1737215D01*
X1387604Y-1718673D01*
X1369060Y-1709529D01*
X1332235Y-1709529D01*
X1485392Y-1709529D02*
G01*
X1485392Y-1903331D01*
X1485392Y-1709529D02*
G01*
X1614683Y-1903331D01*
X1614683Y-1709529D02*
G01*
X1614683Y-1903331D01*
X1814321Y-1755757D02*
G01*
X1804923Y-1737215D01*
X1786638Y-1718673D01*
X1768094Y-1709529D01*
X1731010Y-1709529D01*
X1712721Y-1718673D01*
X1694185Y-1737215D01*
X1685038Y-1755757D01*
X1675637Y-1783443D01*
X1675637Y-1829417D01*
X1685038Y-1857357D01*
X1694185Y-1875645D01*
X1712721Y-1894187D01*
X1731010Y-1903331D01*
X1768094Y-1903331D01*
X1786638Y-1894187D01*
X1804923Y-1875645D01*
X1814321Y-1857357D01*
X1814321Y-1829417D01*
X1768094Y-1829417D02*
G01*
X1814321Y-1829417D01*
D22*
X2044692Y5175199D02*
G01*
X2044692Y5683199D01*
X2298692Y5683199D01*
X2298692Y5175199D01*
X2044692Y5175199D01*
D10*
X1272527Y4563059D02*
G01*
X1272527Y4692599D01*
X1018527Y4692599D01*
X1018527Y4235399D01*
X1272527Y4235399D01*
X1272527Y4349699D01*
X975347Y4763719D02*
G01*
X911847Y4763716D01*
X911847Y4921199D01*
X1125209Y4766261D02*
G01*
X1193792Y4766259D01*
X1196327Y4768799D01*
X1196327Y4921199D01*
X792474Y4611319D02*
G01*
X795009Y4608779D01*
X795009Y4243019D01*
X96520Y4243019D01*
X96520Y4611319D01*
X114300Y4611319D01*
X792474Y4611319D01*
X792474Y5005019D02*
G01*
X795009Y5002479D01*
X795009Y4636719D01*
X96520Y4636719D01*
X96520Y5005019D01*
X114300Y5005019D01*
X792474Y5005019D01*
X1549392Y4984699D02*
G01*
X1549392Y4552899D01*
X1752592Y4552899D01*
X1752592Y4984699D01*
X1549392Y4984699D01*
X1790692Y4984699D02*
G01*
X1790692Y4552899D01*
X1993892Y4552899D01*
X1993892Y4984699D01*
X1790692Y4984699D01*
X2031992Y4984699D02*
G01*
X2031992Y4552899D01*
X2235192Y4552899D01*
X2235192Y4984699D01*
X2031992Y4984699D01*
X1511292Y4984699D02*
G01*
X1511292Y4552899D01*
X1308092Y4552899D01*
X1308092Y4984699D01*
X1511292Y4984699D01*
X1259987Y5073898D02*
G01*
X10998Y5073898D01*
X9999Y5074902D02*
G01*
X9999Y5684903D01*
X1259987Y5074902D02*
G01*
X1259987Y5684901D01*
X1259987Y5684898D02*
G01*
X9999Y5684898D01*
X12382Y5243779D02*
G01*
X62420Y5243779D01*
X62420Y5634939D01*
X1212522Y5634939D01*
X1212522Y5284927D01*
X1258994Y5284899D01*
X1212522Y5122367D02*
G01*
X1071041Y5122367D01*
X1071041Y5077409D01*
X12382Y5192979D02*
G01*
X62420Y5192979D01*
X62420Y5122367D01*
X203644Y5122367D01*
X537410Y5122395D02*
G01*
X533074Y5122278D01*
X977399Y5122278D01*
X977399Y5077317D01*
X204002Y5077459D02*
G01*
X204002Y5122339D01*
X297500Y5077399D02*
G01*
X297500Y5122397D01*
X533077Y5122397D01*
X1259987Y5201899D02*
G01*
X1212522Y5201869D01*
X1212522Y5122367D01*
D23*
X1028692Y4209999D02*
G01*
X1028692Y3955999D01*
X12700Y3955999D01*
X12700Y4209999D01*
X203200Y4209999D01*
D24*
X1028692Y4209999D02*
G01*
X203200Y4209999D01*
D10*
X1338699Y5678398D02*
G01*
X1988682Y5678398D01*
X1988682Y5378373D02*
G01*
X1338699Y5378373D01*
X1863694Y5378399D02*
G01*
X1863694Y5678398D01*
X1463690Y5378399D02*
G01*
X1463690Y5678398D01*
X1338699Y5678398D02*
G01*
X1338699Y5478924D01*
X1338699Y5678398D02*
G01*
X1338699Y5478924D01*
X1988682Y5678398D02*
G01*
X1988682Y5478924D01*
X1988682Y5678398D02*
G01*
X1988682Y5478924D01*
X1663692Y5251399D02*
G01*
X1993892Y5251399D01*
X1663692Y5251399D02*
G01*
X1333492Y5251399D01*
X11384320Y5678390D02*
G01*
X12034304Y5678390D01*
X12034304Y5378366D02*
G01*
X11384320Y5378366D01*
X11909305Y5378391D02*
G01*
X11909305Y5678390D01*
X11509311Y5378391D02*
G01*
X11509311Y5678390D01*
X11384320Y5678390D02*
G01*
X11384320Y5478914D01*
X11384320Y5678390D02*
G01*
X11384320Y5478914D01*
X12034304Y5678390D02*
G01*
X12034304Y5478914D01*
X12034304Y5678390D02*
G01*
X12034304Y5478914D01*
X11709311Y5251391D02*
G01*
X12039511Y5251391D01*
X11709311Y5251391D02*
G01*
X11379111Y5251391D01*
D23*
X11074311Y4209991D02*
G01*
X11074311Y3955991D01*
X10058311Y3955991D01*
X10058311Y4209991D01*
X10248811Y4209991D01*
D24*
X11074311Y4209991D02*
G01*
X10248811Y4209991D01*
D10*
X11305608Y5073891D02*
G01*
X10056609Y5073891D01*
X10055608Y5074894D02*
G01*
X10055608Y5684895D01*
X11305608Y5074894D02*
G01*
X11305608Y5684893D01*
X11305608Y5684890D02*
G01*
X10055608Y5684890D01*
X10057993Y5243771D02*
G01*
X10108029Y5243771D01*
X10108029Y5634929D01*
X11258143Y5634929D01*
X11258143Y5284919D01*
X11304605Y5284891D01*
X11258143Y5122359D02*
G01*
X11116663Y5122359D01*
X11116663Y5077401D01*
X10057993Y5192971D02*
G01*
X10108029Y5192971D01*
X10108029Y5122359D01*
X10249258Y5122359D01*
X10583021Y5122387D02*
G01*
X10578683Y5122270D01*
X11023013Y5122270D01*
X11023013Y5077310D01*
X10249613Y5077452D02*
G01*
X10249613Y5122331D01*
X10343106Y5077391D02*
G01*
X10343106Y5122390D01*
X10578683Y5122390D01*
X11305608Y5201889D02*
G01*
X11258143Y5201861D01*
X11258143Y5122359D01*
X11556911Y4984691D02*
G01*
X11556911Y4552891D01*
X11353711Y4552891D01*
X11353711Y4984691D01*
X11556911Y4984691D01*
X12077611Y4984691D02*
G01*
X12077611Y4552891D01*
X12280811Y4552891D01*
X12280811Y4984691D01*
X12077611Y4984691D01*
X11836311Y4984691D02*
G01*
X11836311Y4552891D01*
X12039511Y4552891D01*
X12039511Y4984691D01*
X11836311Y4984691D01*
X11595011Y4984691D02*
G01*
X11595011Y4552891D01*
X11798211Y4552891D01*
X11798211Y4984691D01*
X11595011Y4984691D01*
X10838086Y5005011D02*
G01*
X10840631Y5002471D01*
X10840631Y4636711D01*
X10142131Y4636711D01*
X10142131Y5005011D01*
X10159911Y5005011D01*
X10838086Y5005011D01*
X10838086Y4611311D02*
G01*
X10840631Y4608771D01*
X10840631Y4243011D01*
X10142131Y4243011D01*
X10142131Y4611311D01*
X10159911Y4611311D01*
X10838086Y4611311D01*
X11020968Y4763711D02*
G01*
X10957468Y4763706D01*
X10957468Y4921191D01*
X11170831Y4766254D02*
G01*
X11239403Y4766251D01*
X11241948Y4768791D01*
X11241948Y4921191D01*
X11318148Y4563051D02*
G01*
X11318148Y4692591D01*
X11064148Y4692591D01*
X11064148Y4235391D01*
X11318148Y4235391D01*
X11318148Y4349691D01*
D22*
X12090311Y5175191D02*
G01*
X12090311Y5683191D01*
X12344311Y5683191D01*
X12344311Y5175191D01*
X12090311Y5175191D01*
D10*
X8872918Y5678390D02*
G01*
X9522901Y5678390D01*
X9522901Y5378368D02*
G01*
X8872918Y5378368D01*
X9397900Y5378391D02*
G01*
X9397900Y5678390D01*
X8997906Y5378391D02*
G01*
X8997906Y5678390D01*
X8872918Y5678390D02*
G01*
X8872918Y5478919D01*
X8872918Y5678390D02*
G01*
X8872918Y5478919D01*
X9522901Y5678390D02*
G01*
X9522901Y5478919D01*
X9522901Y5678390D02*
G01*
X9522901Y5478919D01*
X9197908Y5251391D02*
G01*
X9528108Y5251391D01*
X9197908Y5251391D02*
G01*
X8867708Y5251391D01*
D23*
X8562908Y4209991D02*
G01*
X8562908Y3955991D01*
X7546908Y3955991D01*
X7546908Y4209991D01*
X7737408Y4209991D01*
D24*
X8562908Y4209991D02*
G01*
X7737408Y4209991D01*
D10*
X8794203Y5073893D02*
G01*
X7545207Y5073893D01*
X7544203Y5074894D02*
G01*
X7544203Y5684898D01*
X8794216Y5074894D02*
G01*
X8794216Y5684893D01*
X8794216Y5684893D02*
G01*
X7544203Y5684893D01*
X7546588Y5243774D02*
G01*
X7596624Y5243774D01*
X7596624Y5634934D01*
X8746738Y5634934D01*
X8746738Y5284922D01*
X8793200Y5284894D01*
X8746738Y5122359D02*
G01*
X8605258Y5122359D01*
X8605258Y5077401D01*
X7546588Y5192974D02*
G01*
X7596624Y5192974D01*
X7596624Y5122359D01*
X7737855Y5122359D01*
X8071619Y5122387D02*
G01*
X8067278Y5122273D01*
X8511618Y5122273D01*
X8511618Y5077310D01*
X7738209Y5077452D02*
G01*
X7738209Y5122331D01*
X7831711Y5077393D02*
G01*
X7831711Y5122392D01*
X8067288Y5122392D01*
X8794203Y5201894D02*
G01*
X8746738Y5201864D01*
X8746738Y5122359D01*
X9045508Y4984691D02*
G01*
X9045508Y4552891D01*
X8842308Y4552891D01*
X8842308Y4984691D01*
X9045508Y4984691D01*
X9566208Y4984691D02*
G01*
X9566208Y4552891D01*
X9769408Y4552891D01*
X9769408Y4984691D01*
X9566208Y4984691D01*
X9324908Y4984691D02*
G01*
X9324908Y4552891D01*
X9528108Y4552891D01*
X9528108Y4984691D01*
X9324908Y4984691D01*
X9083608Y4984691D02*
G01*
X9083608Y4552891D01*
X9286808Y4552891D01*
X9286808Y4984691D01*
X9083608Y4984691D01*
X8326691Y5005014D02*
G01*
X8329226Y5002474D01*
X8329226Y4636714D01*
X7630726Y4636714D01*
X7630726Y5005014D01*
X7648508Y5005014D01*
X8326691Y5005014D01*
X8326691Y4611314D02*
G01*
X8329226Y4608774D01*
X8329226Y4243014D01*
X7630726Y4243014D01*
X7630726Y4611314D01*
X7648508Y4611314D01*
X8326691Y4611314D01*
X8509563Y4763714D02*
G01*
X8446063Y4763709D01*
X8446063Y4921191D01*
X8659426Y4766256D02*
G01*
X8728008Y4766251D01*
X8730543Y4768791D01*
X8730543Y4921191D01*
X8806743Y4563051D02*
G01*
X8806743Y4692591D01*
X8552743Y4692591D01*
X8552743Y4235391D01*
X8806743Y4235391D01*
X8806743Y4349691D01*
D22*
X9578908Y5175191D02*
G01*
X9578908Y5683191D01*
X9832908Y5683191D01*
X9832908Y5175191D01*
X9578908Y5175191D01*
D10*
X6361506Y5678396D02*
G01*
X7011492Y5678396D01*
X7011492Y5378368D02*
G01*
X6361506Y5378368D01*
X6886501Y5378394D02*
G01*
X6886501Y5678396D01*
X6486504Y5378394D02*
G01*
X6486504Y5678396D01*
X6361506Y5678396D02*
G01*
X6361506Y5478924D01*
X6361506Y5678396D02*
G01*
X6361506Y5478924D01*
X7011492Y5678396D02*
G01*
X7011492Y5478924D01*
X7011492Y5678396D02*
G01*
X7011492Y5478924D01*
X6686499Y5251394D02*
G01*
X7016699Y5251394D01*
X6686499Y5251394D02*
G01*
X6356299Y5251394D01*
D23*
X6051499Y4209994D02*
G01*
X6051499Y3955994D01*
X5035499Y3955994D01*
X5035499Y4209994D01*
X5225999Y4209994D01*
D24*
X6051499Y4209994D02*
G01*
X5225999Y4209994D01*
D10*
X6282801Y5073891D02*
G01*
X5033797Y5073891D01*
X5032804Y5074899D02*
G01*
X5032804Y5684895D01*
X6282801Y5074899D02*
G01*
X6282801Y5684895D01*
X6282801Y5684893D02*
G01*
X5032804Y5684893D01*
X5035186Y5243774D02*
G01*
X5085222Y5243774D01*
X5085222Y5634934D01*
X6235336Y5634934D01*
X6235336Y5284924D01*
X6281801Y5284891D01*
X6235336Y5122364D02*
G01*
X6093856Y5122364D01*
X6093856Y5077406D01*
X5035186Y5192974D02*
G01*
X5085222Y5192974D01*
X5085222Y5122364D01*
X5226443Y5122364D01*
X5560207Y5122390D02*
G01*
X5555876Y5122273D01*
X6000206Y5122273D01*
X6000206Y5077315D01*
X5226806Y5077457D02*
G01*
X5226806Y5122336D01*
X5320301Y5077391D02*
G01*
X5320301Y5122390D01*
X5555879Y5122390D01*
X6282801Y5201894D02*
G01*
X6235336Y5201861D01*
X6235336Y5122364D01*
X6534099Y4984694D02*
G01*
X6534099Y4552894D01*
X6330899Y4552894D01*
X6330899Y4984694D01*
X6534099Y4984694D01*
X7054799Y4984694D02*
G01*
X7054799Y4552894D01*
X7257999Y4552894D01*
X7257999Y4984694D01*
X7054799Y4984694D01*
X6813499Y4984694D02*
G01*
X6813499Y4552894D01*
X7016699Y4552894D01*
X7016699Y4984694D01*
X6813499Y4984694D01*
X6572199Y4984694D02*
G01*
X6572199Y4552894D01*
X6775399Y4552894D01*
X6775399Y4984694D01*
X6572199Y4984694D01*
X5815281Y5005011D02*
G01*
X5817824Y5002474D01*
X5817824Y4636711D01*
X5119324Y4636711D01*
X5119324Y5005011D01*
X5137099Y5005011D01*
X5815281Y5005011D01*
X5815281Y4611311D02*
G01*
X5817824Y4608774D01*
X5817824Y4243011D01*
X5119324Y4243011D01*
X5119324Y4611311D01*
X5137099Y4611311D01*
X5815281Y4611311D01*
X5998164Y4763711D02*
G01*
X5934664Y4763711D01*
X5934664Y4921194D01*
X6148024Y4766256D02*
G01*
X6216599Y4766256D01*
X6219141Y4768794D01*
X6219141Y4921194D01*
X6295341Y4563056D02*
G01*
X6295341Y4692594D01*
X6041341Y4692594D01*
X6041341Y4235394D01*
X6295341Y4235394D01*
X6295341Y4349694D01*
D22*
X7067499Y5175194D02*
G01*
X7067499Y5683194D01*
X7321499Y5683194D01*
X7321499Y5175194D01*
X7067499Y5175194D01*
D10*
X3850104Y5678393D02*
G01*
X4500087Y5678393D01*
X4500087Y5378371D02*
G01*
X3850104Y5378371D01*
X4375099Y5378399D02*
G01*
X4375099Y5678393D01*
X3975094Y5378399D02*
G01*
X3975094Y5678393D01*
X3850104Y5678393D02*
G01*
X3850104Y5478919D01*
X3850104Y5678393D02*
G01*
X3850104Y5478919D01*
X4500087Y5678393D02*
G01*
X4500087Y5478919D01*
X4500087Y5678393D02*
G01*
X4500087Y5478919D01*
X4175097Y5251399D02*
G01*
X4505297Y5251399D01*
X4175097Y5251399D02*
G01*
X3844897Y5251399D01*
D23*
X3540097Y4209999D02*
G01*
X3540097Y3955999D01*
X2524097Y3955999D01*
X2524097Y4209999D01*
X2714597Y4209999D01*
D24*
X3540097Y4209999D02*
G01*
X2714597Y4209999D01*
D10*
X3771392Y5073896D02*
G01*
X2522395Y5073896D01*
X2521402Y5074899D02*
G01*
X2521402Y5684901D01*
X3771392Y5074899D02*
G01*
X3771392Y5684901D01*
X3771392Y5684895D02*
G01*
X2521402Y5684895D01*
X2523777Y5243774D02*
G01*
X2573822Y5243774D01*
X2573822Y5634934D01*
X3723927Y5634934D01*
X3723927Y5284922D01*
X3770398Y5284896D01*
X3723927Y5122364D02*
G01*
X3582456Y5122364D01*
X3582456Y5077406D01*
X2523777Y5192974D02*
G01*
X2573822Y5192974D01*
X2573822Y5122364D01*
X2715041Y5122364D01*
X3048805Y5122395D02*
G01*
X3044477Y5122273D01*
X3488804Y5122273D01*
X3488804Y5077315D01*
X2715397Y5077459D02*
G01*
X2715397Y5122339D01*
X2808899Y5077393D02*
G01*
X2808899Y5122395D01*
X3044477Y5122395D01*
X3771392Y5201897D02*
G01*
X3723927Y5201864D01*
X3723927Y5122364D01*
X4022697Y4984699D02*
G01*
X4022697Y4552899D01*
X3819497Y4552899D01*
X3819497Y4984699D01*
X4022697Y4984699D01*
X4543397Y4984699D02*
G01*
X4543397Y4552899D01*
X4746597Y4552899D01*
X4746597Y4984699D01*
X4543397Y4984699D01*
X4302097Y4984699D02*
G01*
X4302097Y4552899D01*
X4505297Y4552899D01*
X4505297Y4984699D01*
X4302097Y4984699D01*
X4060797Y4984699D02*
G01*
X4060797Y4552899D01*
X4263997Y4552899D01*
X4263997Y4984699D01*
X4060797Y4984699D01*
X3303879Y5005014D02*
G01*
X3306414Y5002474D01*
X3306414Y4636714D01*
X2607914Y4636714D01*
X2607914Y5005014D01*
X2625697Y5005014D01*
X3303879Y5005014D01*
X3303879Y4611314D02*
G01*
X3306414Y4608774D01*
X3306414Y4243014D01*
X2607914Y4243014D01*
X2607914Y4611314D01*
X2625697Y4611314D01*
X3303879Y4611314D01*
X3486762Y4763714D02*
G01*
X3423262Y4763711D01*
X3423262Y4921199D01*
X3636614Y4766256D02*
G01*
X3705197Y4766256D01*
X3707731Y4768799D01*
X3707731Y4921199D01*
X3783931Y4563056D02*
G01*
X3783931Y4692599D01*
X3529931Y4692599D01*
X3529931Y4235399D01*
X3783931Y4235399D01*
X3783931Y4349699D01*
D22*
X4556097Y5175199D02*
G01*
X4556097Y5683199D01*
X4810097Y5683199D01*
X4810097Y5175199D01*
X4556097Y5175199D01*
X2044700Y3209899D02*
G01*
X2044700Y3717899D01*
X2298700Y3717899D01*
X2298700Y3209899D01*
X2044700Y3209899D01*
D10*
X1272539Y2597759D02*
G01*
X1272539Y2727299D01*
X1018539Y2727299D01*
X1018539Y2270099D01*
X1272539Y2270099D01*
X1272539Y2384399D01*
X975360Y2798419D02*
G01*
X911860Y2798417D01*
X911860Y2955899D01*
X1125219Y2800962D02*
G01*
X1193797Y2800959D01*
X1196339Y2803499D01*
X1196339Y2955899D01*
X792480Y2646019D02*
G01*
X795019Y2643479D01*
X795019Y2277719D01*
X96520Y2277719D01*
X96520Y2646019D01*
X114300Y2646019D01*
X792480Y2646019D01*
X792480Y3039719D02*
G01*
X795019Y3037179D01*
X795019Y2671419D01*
X96520Y2671419D01*
X96520Y3039719D01*
X114300Y3039719D01*
X792480Y3039719D01*
X1549400Y3019399D02*
G01*
X1549400Y2587599D01*
X1752600Y2587599D01*
X1752600Y3019399D01*
X1549400Y3019399D01*
X1790700Y3019399D02*
G01*
X1790700Y2587599D01*
X1993900Y2587599D01*
X1993900Y3019399D01*
X1790700Y3019399D01*
X2032000Y3019399D02*
G01*
X2032000Y2587599D01*
X2235200Y2587599D01*
X2235200Y3019399D01*
X2032000Y3019399D01*
X1511300Y3019399D02*
G01*
X1511300Y2587599D01*
X1308100Y2587599D01*
X1308100Y3019399D01*
X1511300Y3019399D01*
X1259997Y3108599D02*
G01*
X10998Y3108599D01*
X9999Y3109602D02*
G01*
X9999Y3719603D01*
X1260000Y3109602D02*
G01*
X1260000Y3719601D01*
X1260000Y3719598D02*
G01*
X9999Y3719598D01*
X12382Y3278479D02*
G01*
X62420Y3278479D01*
X62420Y3669639D01*
X1212532Y3669639D01*
X1212532Y3319627D01*
X1258999Y3319599D01*
X1212532Y3157067D02*
G01*
X1071054Y3157067D01*
X1071054Y3112109D01*
X12382Y3227679D02*
G01*
X62420Y3227679D01*
X62420Y3157067D01*
X203644Y3157067D01*
X537410Y3157095D02*
G01*
X533074Y3156978D01*
X977407Y3156978D01*
X977407Y3112018D01*
X204002Y3112160D02*
G01*
X204002Y3157039D01*
X297500Y3112099D02*
G01*
X297500Y3157098D01*
X533077Y3157098D01*
X1259997Y3236600D02*
G01*
X1212532Y3236569D01*
X1212532Y3157067D01*
D23*
X1028700Y2244699D02*
G01*
X1028700Y1990699D01*
X12700Y1990699D01*
X12700Y2244699D01*
X203200Y2244699D01*
D24*
X1028700Y2244699D02*
G01*
X203200Y2244699D01*
D10*
X1338707Y3713098D02*
G01*
X1988693Y3713098D01*
X1988693Y3413074D02*
G01*
X1338707Y3413074D01*
X1863699Y3413099D02*
G01*
X1863699Y3713098D01*
X1463700Y3413099D02*
G01*
X1463700Y3713098D01*
X1338707Y3713098D02*
G01*
X1338707Y3513625D01*
X1338707Y3713098D02*
G01*
X1338707Y3513625D01*
X1988693Y3713098D02*
G01*
X1988693Y3513625D01*
X1988693Y3713098D02*
G01*
X1988693Y3513625D01*
X1663700Y3286099D02*
G01*
X1993900Y3286099D01*
X1663700Y3286099D02*
G01*
X1333500Y3286099D01*
X11384325Y3713091D02*
G01*
X12034311Y3713091D01*
X12034311Y3413066D02*
G01*
X11384325Y3413066D01*
X11909318Y3413091D02*
G01*
X11909318Y3713091D01*
X11509324Y3413091D02*
G01*
X11509324Y3713091D01*
X11384325Y3713091D02*
G01*
X11384325Y3513615D01*
X11384325Y3713091D02*
G01*
X11384325Y3513615D01*
X12034311Y3713091D02*
G01*
X12034311Y3513615D01*
X12034311Y3713091D02*
G01*
X12034311Y3513615D01*
X11709318Y3286091D02*
G01*
X12039518Y3286091D01*
X11709318Y3286091D02*
G01*
X11379118Y3286091D01*
D23*
X11074318Y2244691D02*
G01*
X11074318Y1990691D01*
X10058318Y1990691D01*
X10058318Y2244691D01*
X10248818Y2244691D01*
D24*
X11074318Y2244691D02*
G01*
X10248818Y2244691D01*
D10*
X11305621Y3108591D02*
G01*
X10056616Y3108591D01*
X10055621Y3109594D02*
G01*
X10055621Y3719596D01*
X11305621Y3109594D02*
G01*
X11305621Y3719593D01*
X11305621Y3719591D02*
G01*
X10055621Y3719591D01*
X10058006Y3278471D02*
G01*
X10108041Y3278471D01*
X10108041Y3669629D01*
X11258156Y3669629D01*
X11258156Y3319619D01*
X11304617Y3319592D01*
X11258156Y3157059D02*
G01*
X11116675Y3157059D01*
X11116675Y3112101D01*
X10058006Y3227671D02*
G01*
X10108041Y3227671D01*
X10108041Y3157059D01*
X10249263Y3157059D01*
X10583034Y3157087D02*
G01*
X10578696Y3156971D01*
X11023025Y3156971D01*
X11023025Y3112010D01*
X10249626Y3112152D02*
G01*
X10249626Y3157032D01*
X10343118Y3112091D02*
G01*
X10343118Y3157090D01*
X10578696Y3157090D01*
X11305621Y3236589D02*
G01*
X11258156Y3236561D01*
X11258156Y3157059D01*
X11556918Y3019391D02*
G01*
X11556918Y2587591D01*
X11353718Y2587591D01*
X11353718Y3019391D01*
X11556918Y3019391D01*
X12077618Y3019391D02*
G01*
X12077618Y2587591D01*
X12280818Y2587591D01*
X12280818Y3019391D01*
X12077618Y3019391D01*
X11836318Y3019391D02*
G01*
X11836318Y2587591D01*
X12039518Y2587591D01*
X12039518Y3019391D01*
X11836318Y3019391D01*
X11595018Y3019391D02*
G01*
X11595018Y2587591D01*
X11798218Y2587591D01*
X11798218Y3019391D01*
X11595018Y3019391D01*
X10838098Y3039711D02*
G01*
X10840643Y3037171D01*
X10840643Y2671411D01*
X10142143Y2671411D01*
X10142143Y3039711D01*
X10159918Y3039711D01*
X10838098Y3039711D01*
X10838098Y2646011D02*
G01*
X10840643Y2643471D01*
X10840643Y2277711D01*
X10142143Y2277711D01*
X10142143Y2646011D01*
X10159918Y2646011D01*
X10838098Y2646011D01*
X11020981Y2798411D02*
G01*
X10957481Y2798406D01*
X10957481Y2955891D01*
X11170843Y2800954D02*
G01*
X11239416Y2800951D01*
X11241961Y2803491D01*
X11241961Y2955891D01*
X11318161Y2597751D02*
G01*
X11318161Y2727291D01*
X11064161Y2727291D01*
X11064161Y2270091D01*
X11318161Y2270091D01*
X11318161Y2384391D01*
D22*
X12090318Y3209891D02*
G01*
X12090318Y3717891D01*
X12344318Y3717891D01*
X12344318Y3209891D01*
X12090318Y3209891D01*
D10*
X8872928Y3713091D02*
G01*
X9522912Y3713091D01*
X9522912Y3413069D02*
G01*
X8872928Y3413069D01*
X9397911Y3413091D02*
G01*
X9397911Y3713091D01*
X8997919Y3413091D02*
G01*
X8997919Y3713091D01*
X8872928Y3713091D02*
G01*
X8872928Y3513620D01*
X8872928Y3713091D02*
G01*
X8872928Y3513620D01*
X9522912Y3713091D02*
G01*
X9522912Y3513620D01*
X9522912Y3713091D02*
G01*
X9522912Y3513620D01*
X9197919Y3286091D02*
G01*
X9528119Y3286091D01*
X9197919Y3286091D02*
G01*
X8867719Y3286091D01*
D23*
X8562919Y2244691D02*
G01*
X8562919Y1990691D01*
X7546919Y1990691D01*
X7546919Y2244691D01*
X7737419Y2244691D01*
D24*
X8562919Y2244691D02*
G01*
X7737419Y2244691D01*
D10*
X8794216Y3108594D02*
G01*
X7545219Y3108594D01*
X7544214Y3109594D02*
G01*
X7544214Y3719598D01*
X8794226Y3109594D02*
G01*
X8794226Y3719593D01*
X8794226Y3719593D02*
G01*
X7544214Y3719593D01*
X7546601Y3278474D02*
G01*
X7596637Y3278474D01*
X7596637Y3669634D01*
X8746751Y3669634D01*
X8746751Y3319622D01*
X8793210Y3319594D01*
X8746751Y3157059D02*
G01*
X8605271Y3157059D01*
X8605271Y3112101D01*
X7546601Y3227674D02*
G01*
X7596637Y3227674D01*
X7596637Y3157059D01*
X7737866Y3157059D01*
X8071629Y3157087D02*
G01*
X8067288Y3156973D01*
X8511628Y3156973D01*
X8511628Y3112010D01*
X7738221Y3112152D02*
G01*
X7738221Y3157032D01*
X7831721Y3112094D02*
G01*
X7831721Y3157092D01*
X8067299Y3157092D01*
X8794216Y3236594D02*
G01*
X8746751Y3236564D01*
X8746751Y3157059D01*
X9045519Y3019391D02*
G01*
X9045519Y2587591D01*
X8842319Y2587591D01*
X8842319Y3019391D01*
X9045519Y3019391D01*
X9566219Y3019391D02*
G01*
X9566219Y2587591D01*
X9769419Y2587591D01*
X9769419Y3019391D01*
X9566219Y3019391D01*
X9324919Y3019391D02*
G01*
X9324919Y2587591D01*
X9528119Y2587591D01*
X9528119Y3019391D01*
X9324919Y3019391D01*
X9083619Y3019391D02*
G01*
X9083619Y2587591D01*
X9286819Y2587591D01*
X9286819Y3019391D01*
X9083619Y3019391D01*
X8326701Y3039714D02*
G01*
X8329239Y3037174D01*
X8329239Y2671414D01*
X7630739Y2671414D01*
X7630739Y3039714D01*
X7648519Y3039714D01*
X8326701Y3039714D01*
X8326701Y2646014D02*
G01*
X8329239Y2643474D01*
X8329239Y2277714D01*
X7630739Y2277714D01*
X7630739Y2646014D01*
X7648519Y2646014D01*
X8326701Y2646014D01*
X8509574Y2798414D02*
G01*
X8446074Y2798409D01*
X8446074Y2955891D01*
X8659439Y2800957D02*
G01*
X8728019Y2800951D01*
X8730556Y2803491D01*
X8730556Y2955891D01*
X8806756Y2597751D02*
G01*
X8806756Y2727291D01*
X8552756Y2727291D01*
X8552756Y2270091D01*
X8806756Y2270091D01*
X8806756Y2384391D01*
D22*
X9578919Y3209891D02*
G01*
X9578919Y3717891D01*
X9832919Y3717891D01*
X9832919Y3209891D01*
X9578919Y3209891D01*
D10*
X6361518Y3713096D02*
G01*
X7011504Y3713096D01*
X7011504Y3413069D02*
G01*
X6361518Y3413069D01*
X6886514Y3413094D02*
G01*
X6886514Y3713096D01*
X6486512Y3413094D02*
G01*
X6486512Y3713096D01*
X6361518Y3713096D02*
G01*
X6361518Y3513625D01*
X6361518Y3713096D02*
G01*
X6361518Y3513625D01*
X7011504Y3713096D02*
G01*
X7011504Y3513625D01*
X7011504Y3713096D02*
G01*
X7011504Y3513625D01*
X6686511Y3286094D02*
G01*
X7016711Y3286094D01*
X6686511Y3286094D02*
G01*
X6356311Y3286094D01*
D23*
X6051511Y2244694D02*
G01*
X6051511Y1990694D01*
X5035511Y1990694D01*
X5035511Y2244694D01*
X5226011Y2244694D01*
D24*
X6051511Y2244694D02*
G01*
X5226011Y2244694D01*
D10*
X6282809Y3108591D02*
G01*
X5033810Y3108591D01*
X5032816Y3109600D02*
G01*
X5032816Y3719596D01*
X6282811Y3109600D02*
G01*
X6282811Y3719596D01*
X6282811Y3719593D02*
G01*
X5032816Y3719593D01*
X5035194Y3278474D02*
G01*
X5085232Y3278474D01*
X5085232Y3669634D01*
X6235344Y3669634D01*
X6235344Y3319625D01*
X6281813Y3319592D01*
X6235344Y3157065D02*
G01*
X6093866Y3157065D01*
X6093866Y3112107D01*
X5035194Y3227674D02*
G01*
X5085232Y3227674D01*
X5085232Y3157065D01*
X5226456Y3157065D01*
X5560220Y3157090D02*
G01*
X5555886Y3156973D01*
X6000219Y3156973D01*
X6000219Y3112015D01*
X5226814Y3112157D02*
G01*
X5226814Y3157037D01*
X5320314Y3112091D02*
G01*
X5320314Y3157090D01*
X5555891Y3157090D01*
X6282809Y3236594D02*
G01*
X6235344Y3236561D01*
X6235344Y3157065D01*
X6534111Y3019394D02*
G01*
X6534111Y2587594D01*
X6330911Y2587594D01*
X6330911Y3019394D01*
X6534111Y3019394D01*
X7054811Y3019394D02*
G01*
X7054811Y2587594D01*
X7258011Y2587594D01*
X7258011Y3019394D01*
X7054811Y3019394D01*
X6813511Y3019394D02*
G01*
X6813511Y2587594D01*
X7016711Y2587594D01*
X7016711Y3019394D01*
X6813511Y3019394D01*
X6572211Y3019394D02*
G01*
X6572211Y2587594D01*
X6775411Y2587594D01*
X6775411Y3019394D01*
X6572211Y3019394D01*
X5815294Y3039711D02*
G01*
X5817831Y3037174D01*
X5817831Y2671411D01*
X5119331Y2671411D01*
X5119331Y3039711D01*
X5137111Y3039711D01*
X5815294Y3039711D01*
X5815294Y2646011D02*
G01*
X5817831Y2643474D01*
X5817831Y2277711D01*
X5119331Y2277711D01*
X5119331Y2646011D01*
X5137111Y2646011D01*
X5815294Y2646011D01*
X5998176Y2798411D02*
G01*
X5934676Y2798411D01*
X5934676Y2955894D01*
X6148031Y2800957D02*
G01*
X6216611Y2800957D01*
X6219151Y2803494D01*
X6219151Y2955894D01*
X6295351Y2597757D02*
G01*
X6295351Y2727294D01*
X6041351Y2727294D01*
X6041351Y2270094D01*
X6295351Y2270094D01*
X6295351Y2384394D01*
D22*
X7067511Y3209894D02*
G01*
X7067511Y3717894D01*
X7321511Y3717894D01*
X7321511Y3209894D01*
X7067511Y3209894D01*
D10*
X3850116Y3713093D02*
G01*
X4500100Y3713093D01*
X4500100Y3413071D02*
G01*
X3850116Y3413071D01*
X4375111Y3413099D02*
G01*
X4375111Y3713093D01*
X3975107Y3413099D02*
G01*
X3975107Y3713093D01*
X3850116Y3713093D02*
G01*
X3850116Y3513620D01*
X3850116Y3713093D02*
G01*
X3850116Y3513620D01*
X4500100Y3713093D02*
G01*
X4500100Y3513620D01*
X4500100Y3713093D02*
G01*
X4500100Y3513620D01*
X4175109Y3286099D02*
G01*
X4505309Y3286099D01*
X4175109Y3286099D02*
G01*
X3844909Y3286099D01*
D23*
X3540109Y2244699D02*
G01*
X3540109Y1990699D01*
X2524109Y1990699D01*
X2524109Y2244699D01*
X2714609Y2244699D01*
D24*
X3540109Y2244699D02*
G01*
X2714609Y2244699D01*
D10*
X3771404Y3108596D02*
G01*
X2522407Y3108596D01*
X2521414Y3109600D02*
G01*
X2521414Y3719601D01*
X3771404Y3109600D02*
G01*
X3771404Y3719601D01*
X3771404Y3719596D02*
G01*
X2521414Y3719596D01*
X2523789Y3278474D02*
G01*
X2573835Y3278474D01*
X2573835Y3669634D01*
X3723939Y3669634D01*
X3723939Y3319622D01*
X3770411Y3319597D01*
X3723939Y3157065D02*
G01*
X3582469Y3157065D01*
X3582469Y3112107D01*
X2523789Y3227674D02*
G01*
X2573835Y3227674D01*
X2573835Y3157065D01*
X2715054Y3157065D01*
X3048817Y3157095D02*
G01*
X3044489Y3156973D01*
X3488817Y3156973D01*
X3488817Y3112015D01*
X2715409Y3112160D02*
G01*
X2715409Y3157039D01*
X2808912Y3112094D02*
G01*
X2808912Y3157095D01*
X3044489Y3157095D01*
X3771404Y3236597D02*
G01*
X3723939Y3236564D01*
X3723939Y3157065D01*
X4022709Y3019399D02*
G01*
X4022709Y2587599D01*
X3819509Y2587599D01*
X3819509Y3019399D01*
X4022709Y3019399D01*
X4543409Y3019399D02*
G01*
X4543409Y2587599D01*
X4746609Y2587599D01*
X4746609Y3019399D01*
X4543409Y3019399D01*
X4302109Y3019399D02*
G01*
X4302109Y2587599D01*
X4505309Y2587599D01*
X4505309Y3019399D01*
X4302109Y3019399D01*
X4060809Y3019399D02*
G01*
X4060809Y2587599D01*
X4264009Y2587599D01*
X4264009Y3019399D01*
X4060809Y3019399D01*
X3303892Y3039714D02*
G01*
X3306427Y3037174D01*
X3306427Y2671414D01*
X2607927Y2671414D01*
X2607927Y3039714D01*
X2625709Y3039714D01*
X3303892Y3039714D01*
X3303892Y2646014D02*
G01*
X3306427Y2643474D01*
X3306427Y2277714D01*
X2607927Y2277714D01*
X2607927Y2646014D01*
X2625709Y2646014D01*
X3303892Y2646014D01*
X3486774Y2798414D02*
G01*
X3423274Y2798411D01*
X3423274Y2955899D01*
X3636627Y2800957D02*
G01*
X3705209Y2800957D01*
X3707744Y2803499D01*
X3707744Y2955899D01*
X3783944Y2597757D02*
G01*
X3783944Y2727299D01*
X3529944Y2727299D01*
X3529944Y2270099D01*
X3783944Y2270099D01*
X3783944Y2384399D01*
D22*
X4556109Y3209899D02*
G01*
X4556109Y3717899D01*
X4810109Y3717899D01*
X4810109Y3209899D01*
X4556109Y3209899D01*
X2044700Y1244600D02*
G01*
X2044700Y1752600D01*
X2298700Y1752600D01*
X2298700Y1244600D01*
X2044700Y1244600D01*
D10*
X1272537Y632459D02*
G01*
X1272537Y762000D01*
X1018537Y762000D01*
X1018537Y304800D01*
X1272537Y304800D01*
X1272537Y419100D01*
X975357Y833119D02*
G01*
X911857Y833117D01*
X911857Y990600D01*
X1125219Y835662D02*
G01*
X1193800Y835659D01*
X1196337Y838200D01*
X1196337Y990600D01*
X792482Y680719D02*
G01*
X795019Y678179D01*
X795019Y312419D01*
X96520Y312419D01*
X96520Y680719D01*
X114300Y680719D01*
X792482Y680719D01*
X792482Y1074419D02*
G01*
X795019Y1071879D01*
X795019Y706119D01*
X96520Y706119D01*
X96520Y1074419D01*
X114300Y1074419D01*
X792482Y1074419D01*
X1549400Y1054100D02*
G01*
X1549400Y622300D01*
X1752600Y622300D01*
X1752600Y1054100D01*
X1549400Y1054100D01*
X1790700Y1054100D02*
G01*
X1790700Y622300D01*
X1993900Y622300D01*
X1993900Y1054100D01*
X1790700Y1054100D01*
X2032000Y1054100D02*
G01*
X2032000Y622300D01*
X2235200Y622300D01*
X2235200Y1054100D01*
X2032000Y1054100D01*
X1511300Y1054100D02*
G01*
X1511300Y622300D01*
X1308100Y622300D01*
X1308100Y1054100D01*
X1511300Y1054100D01*
X1259997Y1143299D02*
G01*
X10998Y1143299D01*
X9999Y1144303D02*
G01*
X9999Y1754304D01*
X1259997Y1144303D02*
G01*
X1259997Y1754301D01*
X1259997Y1754299D02*
G01*
X9999Y1754299D01*
X12382Y1313179D02*
G01*
X62420Y1313179D01*
X62420Y1704339D01*
X1212532Y1704339D01*
X1212532Y1354327D01*
X1259001Y1354300D01*
X1212532Y1191767D02*
G01*
X1071051Y1191767D01*
X1071051Y1146809D01*
X12382Y1262379D02*
G01*
X62420Y1262379D01*
X62420Y1191767D01*
X203644Y1191767D01*
X537413Y1191795D02*
G01*
X533074Y1191679D01*
X977409Y1191679D01*
X977409Y1146718D01*
X204002Y1146860D02*
G01*
X204002Y1191740D01*
X297500Y1146799D02*
G01*
X297500Y1191798D01*
X533077Y1191798D01*
X1259997Y1271300D02*
G01*
X1212532Y1271269D01*
X1212532Y1191767D01*
D23*
X1028700Y279400D02*
G01*
X1028700Y25400D01*
X12700Y25400D01*
X12700Y279400D01*
X203200Y279400D01*
D24*
X1028700Y279400D02*
G01*
X203200Y279400D01*
D10*
X1338709Y1747799D02*
G01*
X1988693Y1747799D01*
X1988693Y1447774D02*
G01*
X1338709Y1447774D01*
X1863702Y1447800D02*
G01*
X1863702Y1747799D01*
X1463700Y1447800D02*
G01*
X1463700Y1747799D01*
X1338709Y1747799D02*
G01*
X1338709Y1548325D01*
X1338709Y1747799D02*
G01*
X1338709Y1548325D01*
X1988693Y1747799D02*
G01*
X1988693Y1548325D01*
X1988693Y1747799D02*
G01*
X1988693Y1548325D01*
X1663700Y1320800D02*
G01*
X1993900Y1320800D01*
X1663700Y1320800D02*
G01*
X1333500Y1320800D01*
X11384328Y1747791D02*
G01*
X12034311Y1747791D01*
X12034311Y1447766D02*
G01*
X11384328Y1447766D01*
X11909320Y1447792D02*
G01*
X11909320Y1747791D01*
X11509321Y1447792D02*
G01*
X11509321Y1747791D01*
X11384328Y1747791D02*
G01*
X11384328Y1548315D01*
X11384328Y1747791D02*
G01*
X11384328Y1548315D01*
X12034311Y1747791D02*
G01*
X12034311Y1548315D01*
X12034311Y1747791D02*
G01*
X12034311Y1548315D01*
X11709321Y1320792D02*
G01*
X12039521Y1320792D01*
X11709321Y1320792D02*
G01*
X11379121Y1320792D01*
D23*
X11074321Y279392D02*
G01*
X11074321Y25392D01*
X10058321Y25392D01*
X10058321Y279392D01*
X10248821Y279392D01*
D24*
X11074321Y279392D02*
G01*
X10248821Y279392D01*
D10*
X11305618Y1143292D02*
G01*
X10056619Y1143292D01*
X10055623Y1144295D02*
G01*
X10055623Y1754296D01*
X11305618Y1144295D02*
G01*
X11305618Y1754294D01*
X11305618Y1754291D02*
G01*
X10055623Y1754291D01*
X10058003Y1313172D02*
G01*
X10108039Y1313172D01*
X10108039Y1704329D01*
X11258153Y1704329D01*
X11258153Y1354320D01*
X11304620Y1354292D01*
X11258153Y1191760D02*
G01*
X11116673Y1191760D01*
X11116673Y1146802D01*
X10058003Y1262372D02*
G01*
X10108039Y1262372D01*
X10108039Y1191760D01*
X10249265Y1191760D01*
X10583031Y1191788D02*
G01*
X10578693Y1191671D01*
X11023028Y1191671D01*
X11023028Y1146710D01*
X10249623Y1146853D02*
G01*
X10249623Y1191732D01*
X10343121Y1146792D02*
G01*
X10343121Y1191790D01*
X10578693Y1191790D01*
X11305618Y1271290D02*
G01*
X11258153Y1271262D01*
X11258153Y1191760D01*
X11556921Y1054092D02*
G01*
X11556921Y622292D01*
X11353721Y622292D01*
X11353721Y1054092D01*
X11556921Y1054092D01*
X12077621Y1054092D02*
G01*
X12077621Y622292D01*
X12280821Y622292D01*
X12280821Y1054092D01*
X12077621Y1054092D01*
X11836321Y1054092D02*
G01*
X11836321Y622292D01*
X12039521Y622292D01*
X12039521Y1054092D01*
X11836321Y1054092D01*
X11595021Y1054092D02*
G01*
X11595021Y622292D01*
X11798221Y622292D01*
X11798221Y1054092D01*
X11595021Y1054092D01*
X10838101Y1074412D02*
G01*
X10840641Y1071872D01*
X10840641Y706112D01*
X10142141Y706112D01*
X10142141Y1074412D01*
X10159921Y1074412D01*
X10838101Y1074412D01*
X10838101Y680712D02*
G01*
X10840641Y678172D01*
X10840641Y312412D01*
X10142141Y312412D01*
X10142141Y680712D01*
X10159921Y680712D01*
X10838101Y680712D01*
X11020983Y833112D02*
G01*
X10957483Y833107D01*
X10957483Y990592D01*
X11170841Y835654D02*
G01*
X11239418Y835652D01*
X11241958Y838192D01*
X11241958Y990592D01*
X11318158Y632452D02*
G01*
X11318158Y761992D01*
X11064158Y761992D01*
X11064158Y304792D01*
X11318158Y304792D01*
X11318158Y419092D01*
D22*
X12090321Y1244592D02*
G01*
X12090321Y1752592D01*
X12344321Y1752592D01*
X12344321Y1244592D01*
X12090321Y1244592D01*
D10*
X8872928Y1747791D02*
G01*
X9522912Y1747791D01*
X9522912Y1447769D02*
G01*
X8872928Y1447769D01*
X9397911Y1447792D02*
G01*
X9397911Y1747791D01*
X8997916Y1447792D02*
G01*
X8997916Y1747791D01*
X8872928Y1747791D02*
G01*
X8872928Y1548320D01*
X8872928Y1747791D02*
G01*
X8872928Y1548320D01*
X9522912Y1747791D02*
G01*
X9522912Y1548320D01*
X9522912Y1747791D02*
G01*
X9522912Y1548320D01*
X9197919Y1320792D02*
G01*
X9528119Y1320792D01*
X9197919Y1320792D02*
G01*
X8867719Y1320792D01*
D23*
X8562919Y279392D02*
G01*
X8562919Y25392D01*
X7546919Y25392D01*
X7546919Y279392D01*
X7737419Y279392D01*
D24*
X8562919Y279392D02*
G01*
X7737419Y279392D01*
D10*
X8794214Y1143294D02*
G01*
X7545217Y1143294D01*
X7544214Y1144295D02*
G01*
X7544214Y1754299D01*
X8794226Y1144295D02*
G01*
X8794226Y1754294D01*
X8794226Y1754294D02*
G01*
X7544214Y1754294D01*
X7546599Y1313174D02*
G01*
X7596634Y1313174D01*
X7596634Y1704334D01*
X8746749Y1704334D01*
X8746749Y1354322D01*
X8793210Y1354294D01*
X8746749Y1191760D02*
G01*
X8605268Y1191760D01*
X8605268Y1146802D01*
X7546599Y1262374D02*
G01*
X7596634Y1262374D01*
X7596634Y1191760D01*
X7737866Y1191760D01*
X8071627Y1191788D02*
G01*
X8067288Y1191674D01*
X8511628Y1191674D01*
X8511628Y1146710D01*
X7738219Y1146853D02*
G01*
X7738219Y1191732D01*
X7831721Y1146794D02*
G01*
X7831721Y1191793D01*
X8067299Y1191793D01*
X8794214Y1271295D02*
G01*
X8746749Y1271264D01*
X8746749Y1191760D01*
X9045519Y1054092D02*
G01*
X9045519Y622292D01*
X8842319Y622292D01*
X8842319Y1054092D01*
X9045519Y1054092D01*
X9566219Y1054092D02*
G01*
X9566219Y622292D01*
X9769419Y622292D01*
X9769419Y1054092D01*
X9566219Y1054092D01*
X9324919Y1054092D02*
G01*
X9324919Y622292D01*
X9528119Y622292D01*
X9528119Y1054092D01*
X9324919Y1054092D01*
X9083619Y1054092D02*
G01*
X9083619Y622292D01*
X9286819Y622292D01*
X9286819Y1054092D01*
X9083619Y1054092D01*
X8326701Y1074414D02*
G01*
X8329236Y1071874D01*
X8329236Y706114D01*
X7630736Y706114D01*
X7630736Y1074414D01*
X7648519Y1074414D01*
X8326701Y1074414D01*
X8326701Y680714D02*
G01*
X8329236Y678174D01*
X8329236Y312414D01*
X7630736Y312414D01*
X7630736Y680714D01*
X7648519Y680714D01*
X8326701Y680714D01*
X8509571Y833114D02*
G01*
X8446071Y833109D01*
X8446071Y990592D01*
X8659436Y835657D02*
G01*
X8728019Y835652D01*
X8730554Y838192D01*
X8730554Y990592D01*
X8806754Y632452D02*
G01*
X8806754Y761992D01*
X8552754Y761992D01*
X8552754Y304792D01*
X8806754Y304792D01*
X8806754Y419092D01*
D22*
X9578919Y1244592D02*
G01*
X9578919Y1752592D01*
X9832919Y1752592D01*
X9832919Y1244592D01*
X9578919Y1244592D01*
D10*
X6361516Y1747796D02*
G01*
X7011507Y1747796D01*
X7011507Y1447769D02*
G01*
X6361516Y1447769D01*
X6886516Y1447794D02*
G01*
X6886516Y1747796D01*
X6486514Y1447794D02*
G01*
X6486514Y1747796D01*
X6361516Y1747796D02*
G01*
X6361516Y1548325D01*
X6361516Y1747796D02*
G01*
X6361516Y1548325D01*
X7011507Y1747796D02*
G01*
X7011507Y1548325D01*
X7011507Y1747796D02*
G01*
X7011507Y1548325D01*
X6686514Y1320794D02*
G01*
X7016714Y1320794D01*
X6686514Y1320794D02*
G01*
X6356314Y1320794D01*
D23*
X6051514Y279394D02*
G01*
X6051514Y25394D01*
X5035514Y25394D01*
X5035514Y279394D01*
X5226014Y279394D01*
D24*
X6051514Y279394D02*
G01*
X5226014Y279394D01*
D10*
X6282811Y1143292D02*
G01*
X5033812Y1143292D01*
X5032819Y1144300D02*
G01*
X5032819Y1754296D01*
X6282811Y1144300D02*
G01*
X6282811Y1754296D01*
X6282811Y1754294D02*
G01*
X5032819Y1754294D01*
X5035196Y1313174D02*
G01*
X5085232Y1313174D01*
X5085232Y1704334D01*
X6235346Y1704334D01*
X6235346Y1354325D01*
X6281816Y1354292D01*
X6235346Y1191765D02*
G01*
X6093866Y1191765D01*
X6093866Y1146807D01*
X5035196Y1262374D02*
G01*
X5085232Y1262374D01*
X5085232Y1191765D01*
X5226453Y1191765D01*
X5560217Y1191790D02*
G01*
X5555886Y1191674D01*
X6000216Y1191674D01*
X6000216Y1146716D01*
X5226817Y1146858D02*
G01*
X5226817Y1191737D01*
X5320317Y1146792D02*
G01*
X5320317Y1191790D01*
X5555889Y1191790D01*
X6282811Y1271295D02*
G01*
X6235346Y1271262D01*
X6235346Y1191765D01*
X6534114Y1054094D02*
G01*
X6534114Y622294D01*
X6330914Y622294D01*
X6330914Y1054094D01*
X6534114Y1054094D01*
X7054814Y1054094D02*
G01*
X7054814Y622294D01*
X7258014Y622294D01*
X7258014Y1054094D01*
X7054814Y1054094D01*
X6813514Y1054094D02*
G01*
X6813514Y622294D01*
X7016714Y622294D01*
X7016714Y1054094D01*
X6813514Y1054094D01*
X6572214Y1054094D02*
G01*
X6572214Y622294D01*
X6775414Y622294D01*
X6775414Y1054094D01*
X6572214Y1054094D01*
X5815296Y1074412D02*
G01*
X5817834Y1071874D01*
X5817834Y706112D01*
X5119334Y706112D01*
X5119334Y1074412D01*
X5137114Y1074412D01*
X5815296Y1074412D01*
X5815296Y680712D02*
G01*
X5817834Y678174D01*
X5817834Y312412D01*
X5119334Y312412D01*
X5119334Y680712D01*
X5137114Y680712D01*
X5815296Y680712D01*
X5998179Y833112D02*
G01*
X5934679Y833112D01*
X5934679Y990594D01*
X6148034Y835657D02*
G01*
X6216614Y835657D01*
X6219151Y838194D01*
X6219151Y990594D01*
X6295351Y632457D02*
G01*
X6295351Y761994D01*
X6041351Y761994D01*
X6041351Y304794D01*
X6295351Y304794D01*
X6295351Y419094D01*
D22*
X7067514Y1244594D02*
G01*
X7067514Y1752594D01*
X7321514Y1752594D01*
X7321514Y1244594D01*
X7067514Y1244594D01*
D10*
X3850114Y1747794D02*
G01*
X4500097Y1747794D01*
X4500097Y1447772D02*
G01*
X3850114Y1447772D01*
X4375114Y1447800D02*
G01*
X4375114Y1747794D01*
X3975110Y1447800D02*
G01*
X3975110Y1747794D01*
X3850114Y1747794D02*
G01*
X3850114Y1548320D01*
X3850114Y1747794D02*
G01*
X3850114Y1548320D01*
X4500097Y1747794D02*
G01*
X4500097Y1548320D01*
X4500097Y1747794D02*
G01*
X4500097Y1548320D01*
X4175112Y1320800D02*
G01*
X4505312Y1320800D01*
X4175112Y1320800D02*
G01*
X3844912Y1320800D01*
D23*
X3540112Y279400D02*
G01*
X3540112Y25400D01*
X2524112Y25400D01*
X2524112Y279400D01*
X2714612Y279400D01*
D24*
X3540112Y279400D02*
G01*
X2714612Y279400D01*
D10*
X3771402Y1143297D02*
G01*
X2522410Y1143297D01*
X2521417Y1144300D02*
G01*
X2521417Y1754301D01*
X3771402Y1144300D02*
G01*
X3771402Y1754301D01*
X3771402Y1754296D02*
G01*
X2521417Y1754296D01*
X2523787Y1313174D02*
G01*
X2573832Y1313174D01*
X2573832Y1704334D01*
X3723937Y1704334D01*
X3723937Y1354322D01*
X3770414Y1354297D01*
X3723937Y1191765D02*
G01*
X3582466Y1191765D01*
X3582466Y1146807D01*
X2523787Y1262374D02*
G01*
X2573832Y1262374D01*
X2573832Y1191765D01*
X2715051Y1191765D01*
X3048815Y1191795D02*
G01*
X3044487Y1191674D01*
X3488814Y1191674D01*
X3488814Y1146716D01*
X2715412Y1146860D02*
G01*
X2715412Y1191740D01*
X2808914Y1146794D02*
G01*
X2808914Y1191795D01*
X3044487Y1191795D01*
X3771402Y1271297D02*
G01*
X3723937Y1271264D01*
X3723937Y1191765D01*
X4022712Y1054100D02*
G01*
X4022712Y622300D01*
X3819512Y622300D01*
X3819512Y1054100D01*
X4022712Y1054100D01*
X4543412Y1054100D02*
G01*
X4543412Y622300D01*
X4746612Y622300D01*
X4746612Y1054100D01*
X4543412Y1054100D01*
X4302112Y1054100D02*
G01*
X4302112Y622300D01*
X4505312Y622300D01*
X4505312Y1054100D01*
X4302112Y1054100D01*
X4060812Y1054100D02*
G01*
X4060812Y622300D01*
X4264012Y622300D01*
X4264012Y1054100D01*
X4060812Y1054100D01*
X3303894Y1074414D02*
G01*
X3306424Y1071874D01*
X3306424Y706114D01*
X2607924Y706114D01*
X2607924Y1074414D01*
X2625712Y1074414D01*
X3303894Y1074414D01*
X3303894Y680714D02*
G01*
X3306424Y678174D01*
X3306424Y312414D01*
X2607924Y312414D01*
X2607924Y680714D01*
X2625712Y680714D01*
X3303894Y680714D01*
X3486777Y833114D02*
G01*
X3423277Y833112D01*
X3423277Y990600D01*
X3636624Y835657D02*
G01*
X3705212Y835657D01*
X3707742Y838200D01*
X3707742Y990600D01*
X3783942Y632457D02*
G01*
X3783942Y762000D01*
X3529942Y762000D01*
X3529942Y304800D01*
X3783942Y304800D01*
X3783942Y419100D01*
D22*
X4556112Y1244600D02*
G01*
X4556112Y1752600D01*
X4810112Y1752600D01*
X4810112Y1244600D01*
X4556112Y1244600D01*
X2044702Y-720707D02*
G01*
X2044702Y-212707D01*
X2298702Y-212707D01*
X2298702Y-720707D01*
X2044702Y-720707D01*
D10*
X1272539Y-1332847D02*
G01*
X1272539Y-1203307D01*
X1018539Y-1203307D01*
X1018539Y-1660507D01*
X1272539Y-1660507D01*
X1272539Y-1546207D01*
X975360Y-1132187D02*
G01*
X911860Y-1132189D01*
X911860Y-974707D01*
X1125222Y-1129644D02*
G01*
X1193802Y-1129647D01*
X1196339Y-1127107D01*
X1196339Y-974707D01*
X792485Y-1284587D02*
G01*
X795022Y-1287127D01*
X795022Y-1652887D01*
X96522Y-1652887D01*
X96522Y-1284587D01*
X114302Y-1284587D01*
X792485Y-1284587D01*
X792485Y-890887D02*
G01*
X795022Y-893427D01*
X795022Y-1259187D01*
X96522Y-1259187D01*
X96522Y-890887D01*
X114302Y-890887D01*
X792485Y-890887D01*
X1549402Y-911207D02*
G01*
X1549402Y-1343007D01*
X1752602Y-1343007D01*
X1752602Y-911207D01*
X1549402Y-911207D01*
X1790702Y-911207D02*
G01*
X1790702Y-1343007D01*
X1993902Y-1343007D01*
X1993902Y-911207D01*
X1790702Y-911207D01*
X2032002Y-911207D02*
G01*
X2032002Y-1343007D01*
X2235202Y-1343007D01*
X2235202Y-911207D01*
X2032002Y-911207D01*
X1511302Y-911207D02*
G01*
X1511302Y-1343007D01*
X1308102Y-1343007D01*
X1308102Y-911207D01*
X1511302Y-911207D01*
X1260000Y-822007D02*
G01*
X11000Y-822007D01*
X10002Y-821004D02*
G01*
X10002Y-211002D01*
X1260000Y-821004D02*
G01*
X1260000Y-211005D01*
X1260000Y-211007D02*
G01*
X10002Y-211007D01*
X12385Y-652127D02*
G01*
X62423Y-652127D01*
X62423Y-260967D01*
X1212535Y-260967D01*
X1212535Y-610979D01*
X1259004Y-611007D01*
X1212535Y-773539D02*
G01*
X1071054Y-773539D01*
X1071054Y-818497D01*
X12385Y-702927D02*
G01*
X62423Y-702927D01*
X62423Y-773539D01*
X203647Y-773539D01*
X537415Y-773511D02*
G01*
X533077Y-773628D01*
X977412Y-773628D01*
X977412Y-818588D01*
X204005Y-818446D02*
G01*
X204005Y-773567D01*
X297502Y-818507D02*
G01*
X297502Y-773508D01*
X533079Y-773508D01*
X1260000Y-694006D02*
G01*
X1212535Y-694037D01*
X1212535Y-773539D01*
D23*
X1028702Y-1685907D02*
G01*
X1028702Y-1939907D01*
X12702Y-1939907D01*
X12702Y-1685907D01*
X203202Y-1685907D01*
D24*
X1028702Y-1685907D02*
G01*
X203202Y-1685907D01*
D10*
X1338712Y-217507D02*
G01*
X1988695Y-217507D01*
X1988695Y-517532D02*
G01*
X1338712Y-517532D01*
X1863704Y-517507D02*
G01*
X1863704Y-217507D01*
X1463702Y-517507D02*
G01*
X1463702Y-217507D01*
X1338712Y-217507D02*
G01*
X1338712Y-416981D01*
X1338712Y-217507D02*
G01*
X1338712Y-416981D01*
X1988695Y-217507D02*
G01*
X1988695Y-416981D01*
X1988695Y-217507D02*
G01*
X1988695Y-416981D01*
X1663702Y-644507D02*
G01*
X1993902Y-644507D01*
X1663702Y-644507D02*
G01*
X1333502Y-644507D01*
X11384330Y-217515D02*
G01*
X12034314Y-217515D01*
X12034314Y-517540D02*
G01*
X11384330Y-517540D01*
X11909323Y-517514D02*
G01*
X11909323Y-217515D01*
X11509324Y-517514D02*
G01*
X11509324Y-217515D01*
X11384330Y-217515D02*
G01*
X11384330Y-416991D01*
X11384330Y-217515D02*
G01*
X11384330Y-416991D01*
X12034314Y-217515D02*
G01*
X12034314Y-416991D01*
X12034314Y-217515D02*
G01*
X12034314Y-416991D01*
X11709323Y-644514D02*
G01*
X12039523Y-644514D01*
X11709323Y-644514D02*
G01*
X11379123Y-644514D01*
D23*
X11074323Y-1685914D02*
G01*
X11074323Y-1939914D01*
X10058323Y-1939914D01*
X10058323Y-1685914D01*
X10248823Y-1685914D01*
D24*
X11074323Y-1685914D02*
G01*
X10248823Y-1685914D01*
D10*
X11305621Y-822015D02*
G01*
X10056621Y-822015D01*
X10055626Y-821011D02*
G01*
X10055626Y-211010D01*
X11305621Y-821011D02*
G01*
X11305621Y-211013D01*
X11305621Y-211015D02*
G01*
X10055626Y-211015D01*
X10058006Y-652134D02*
G01*
X10108041Y-652134D01*
X10108041Y-260977D01*
X11258156Y-260977D01*
X11258156Y-610986D01*
X11304623Y-611014D01*
X11258156Y-773546D02*
G01*
X11116675Y-773546D01*
X11116675Y-818504D01*
X10058006Y-702934D02*
G01*
X10108041Y-702934D01*
X10108041Y-773546D01*
X10249268Y-773546D01*
X10583034Y-773518D02*
G01*
X10578696Y-773635D01*
X11023031Y-773635D01*
X11023031Y-818596D01*
X10249626Y-818454D02*
G01*
X10249626Y-773574D01*
X10343123Y-818515D02*
G01*
X10343123Y-773516D01*
X10578696Y-773516D01*
X11305621Y-694016D02*
G01*
X11258156Y-694044D01*
X11258156Y-773546D01*
X11556923Y-911214D02*
G01*
X11556923Y-1343014D01*
X11353723Y-1343014D01*
X11353723Y-911214D01*
X11556923Y-911214D01*
X12077623Y-911214D02*
G01*
X12077623Y-1343014D01*
X12280823Y-1343014D01*
X12280823Y-911214D01*
X12077623Y-911214D01*
X11836323Y-911214D02*
G01*
X11836323Y-1343014D01*
X12039523Y-1343014D01*
X12039523Y-911214D01*
X11836323Y-911214D01*
X11595023Y-911214D02*
G01*
X11595023Y-1343014D01*
X11798223Y-1343014D01*
X11798223Y-911214D01*
X11595023Y-911214D01*
X10838103Y-890894D02*
G01*
X10840643Y-893434D01*
X10840643Y-1259194D01*
X10142143Y-1259194D01*
X10142143Y-890894D01*
X10159923Y-890894D01*
X10838103Y-890894D01*
X10838103Y-1284594D02*
G01*
X10840643Y-1287134D01*
X10840643Y-1652894D01*
X10142143Y-1652894D01*
X10142143Y-1284594D01*
X10159923Y-1284594D01*
X10838103Y-1284594D01*
X11020986Y-1132194D02*
G01*
X10957486Y-1132199D01*
X10957486Y-974714D01*
X11170843Y-1129652D02*
G01*
X11239421Y-1129654D01*
X11241961Y-1127114D01*
X11241961Y-974714D01*
X11318161Y-1332854D02*
G01*
X11318161Y-1203314D01*
X11064161Y-1203314D01*
X11064161Y-1660514D01*
X11318161Y-1660514D01*
X11318161Y-1546214D01*
D22*
X12090323Y-720714D02*
G01*
X12090323Y-212714D01*
X12344323Y-212714D01*
X12344323Y-720714D01*
X12090323Y-720714D01*
D10*
X8872931Y-217515D02*
G01*
X9522914Y-217515D01*
X9522914Y-517537D02*
G01*
X8872931Y-517537D01*
X9397913Y-517514D02*
G01*
X9397913Y-217515D01*
X8997919Y-517514D02*
G01*
X8997919Y-217515D01*
X8872931Y-217515D02*
G01*
X8872931Y-416986D01*
X8872931Y-217515D02*
G01*
X8872931Y-416986D01*
X9522914Y-217515D02*
G01*
X9522914Y-416986D01*
X9522914Y-217515D02*
G01*
X9522914Y-416986D01*
X9197921Y-644514D02*
G01*
X9528121Y-644514D01*
X9197921Y-644514D02*
G01*
X8867721Y-644514D01*
D23*
X8562921Y-1685914D02*
G01*
X8562921Y-1939914D01*
X7546921Y-1939914D01*
X7546921Y-1685914D01*
X7737421Y-1685914D01*
D24*
X8562921Y-1685914D02*
G01*
X7737421Y-1685914D01*
D10*
X8794216Y-822012D02*
G01*
X7545219Y-822012D01*
X7544216Y-821011D02*
G01*
X7544216Y-211007D01*
X8794229Y-821011D02*
G01*
X8794229Y-211013D01*
X8794229Y-211013D02*
G01*
X7544216Y-211013D01*
X7546601Y-652132D02*
G01*
X7596637Y-652132D01*
X7596637Y-260972D01*
X8746751Y-260972D01*
X8746751Y-610984D01*
X8793213Y-611012D01*
X8746751Y-773546D02*
G01*
X8605271Y-773546D01*
X8605271Y-818504D01*
X7546601Y-702932D02*
G01*
X7596637Y-702932D01*
X7596637Y-773546D01*
X7737868Y-773546D01*
X8071629Y-773518D02*
G01*
X8067291Y-773633D01*
X8511631Y-773633D01*
X8511631Y-818596D01*
X7738221Y-818454D02*
G01*
X7738221Y-773574D01*
X7831724Y-818512D02*
G01*
X7831724Y-773513D01*
X8067301Y-773513D01*
X8794216Y-694011D02*
G01*
X8746751Y-694042D01*
X8746751Y-773546D01*
X9045521Y-911214D02*
G01*
X9045521Y-1343014D01*
X8842321Y-1343014D01*
X8842321Y-911214D01*
X9045521Y-911214D01*
X9566221Y-911214D02*
G01*
X9566221Y-1343014D01*
X9769421Y-1343014D01*
X9769421Y-911214D01*
X9566221Y-911214D01*
X9324921Y-911214D02*
G01*
X9324921Y-1343014D01*
X9528121Y-1343014D01*
X9528121Y-911214D01*
X9324921Y-911214D01*
X9083621Y-911214D02*
G01*
X9083621Y-1343014D01*
X9286821Y-1343014D01*
X9286821Y-911214D01*
X9083621Y-911214D01*
X8326704Y-890892D02*
G01*
X8329239Y-893432D01*
X8329239Y-1259192D01*
X7630739Y-1259192D01*
X7630739Y-890892D01*
X7648521Y-890892D01*
X8326704Y-890892D01*
X8326704Y-1284592D02*
G01*
X8329239Y-1287132D01*
X8329239Y-1652892D01*
X7630739Y-1652892D01*
X7630739Y-1284592D01*
X7648521Y-1284592D01*
X8326704Y-1284592D01*
X8509574Y-1132192D02*
G01*
X8446074Y-1132197D01*
X8446074Y-974714D01*
X8659439Y-1129649D02*
G01*
X8728021Y-1129654D01*
X8730556Y-1127114D01*
X8730556Y-974714D01*
X8806756Y-1332854D02*
G01*
X8806756Y-1203314D01*
X8552756Y-1203314D01*
X8552756Y-1660514D01*
X8806756Y-1660514D01*
X8806756Y-1546214D01*
D22*
X9578921Y-720714D02*
G01*
X9578921Y-212714D01*
X9832921Y-212714D01*
X9832921Y-720714D01*
X9578921Y-720714D01*
D10*
X6361518Y-217510D02*
G01*
X7011509Y-217510D01*
X7011509Y-517537D02*
G01*
X6361518Y-517537D01*
X6886519Y-517512D02*
G01*
X6886519Y-217510D01*
X6486517Y-517512D02*
G01*
X6486517Y-217510D01*
X6361518Y-217510D02*
G01*
X6361518Y-416981D01*
X6361518Y-217510D02*
G01*
X6361518Y-416981D01*
X7011509Y-217510D02*
G01*
X7011509Y-416981D01*
X7011509Y-217510D02*
G01*
X7011509Y-416981D01*
X6686516Y-644512D02*
G01*
X7016716Y-644512D01*
X6686516Y-644512D02*
G01*
X6356316Y-644512D01*
D23*
X6051516Y-1685912D02*
G01*
X6051516Y-1939912D01*
X5035516Y-1939912D01*
X5035516Y-1685912D01*
X5226016Y-1685912D01*
D24*
X6051516Y-1685912D02*
G01*
X5226016Y-1685912D01*
D10*
X6282814Y-822015D02*
G01*
X5033815Y-822015D01*
X5032822Y-821006D02*
G01*
X5032822Y-211010D01*
X6282814Y-821006D02*
G01*
X6282814Y-211010D01*
X6282814Y-211013D02*
G01*
X5032822Y-211013D01*
X5035199Y-652132D02*
G01*
X5085234Y-652132D01*
X5085234Y-260972D01*
X6235349Y-260972D01*
X6235349Y-610981D01*
X6281818Y-611014D01*
X6235349Y-773541D02*
G01*
X6093868Y-773541D01*
X6093868Y-818499D01*
X5035199Y-702932D02*
G01*
X5085234Y-702932D01*
X5085234Y-773541D01*
X5226456Y-773541D01*
X5560220Y-773516D02*
G01*
X5555889Y-773633D01*
X6000219Y-773633D01*
X6000219Y-818591D01*
X5226819Y-818448D02*
G01*
X5226819Y-773569D01*
X5320319Y-818515D02*
G01*
X5320319Y-773516D01*
X5555891Y-773516D01*
X6282814Y-694011D02*
G01*
X6235349Y-694044D01*
X6235349Y-773541D01*
X6534116Y-911212D02*
G01*
X6534116Y-1343012D01*
X6330916Y-1343012D01*
X6330916Y-911212D01*
X6534116Y-911212D01*
X7054816Y-911212D02*
G01*
X7054816Y-1343012D01*
X7258016Y-1343012D01*
X7258016Y-911212D01*
X7054816Y-911212D01*
X6813516Y-911212D02*
G01*
X6813516Y-1343012D01*
X7016716Y-1343012D01*
X7016716Y-911212D01*
X6813516Y-911212D01*
X6572216Y-911212D02*
G01*
X6572216Y-1343012D01*
X6775416Y-1343012D01*
X6775416Y-911212D01*
X6572216Y-911212D01*
X5815299Y-890894D02*
G01*
X5817836Y-893432D01*
X5817836Y-1259194D01*
X5119336Y-1259194D01*
X5119336Y-890894D01*
X5137116Y-890894D01*
X5815299Y-890894D01*
X5815299Y-1284594D02*
G01*
X5817836Y-1287132D01*
X5817836Y-1652894D01*
X5119336Y-1652894D01*
X5119336Y-1284594D01*
X5137116Y-1284594D01*
X5815299Y-1284594D01*
X5998182Y-1132194D02*
G01*
X5934682Y-1132194D01*
X5934682Y-974712D01*
X6148036Y-1129649D02*
G01*
X6216616Y-1129649D01*
X6219154Y-1127112D01*
X6219154Y-974712D01*
X6295354Y-1332849D02*
G01*
X6295354Y-1203312D01*
X6041354Y-1203312D01*
X6041354Y-1660512D01*
X6295354Y-1660512D01*
X6295354Y-1546212D01*
D22*
X7067516Y-720712D02*
G01*
X7067516Y-212712D01*
X7321516Y-212712D01*
X7321516Y-720712D01*
X7067516Y-720712D01*
D10*
X3850116Y-217512D02*
G01*
X4500100Y-217512D01*
X4500100Y-517535D02*
G01*
X3850116Y-517535D01*
X4375116Y-517507D02*
G01*
X4375116Y-217512D01*
X3975112Y-517507D02*
G01*
X3975112Y-217512D01*
X3850116Y-217512D02*
G01*
X3850116Y-416986D01*
X3850116Y-217512D02*
G01*
X3850116Y-416986D01*
X4500100Y-217512D02*
G01*
X4500100Y-416986D01*
X4500100Y-217512D02*
G01*
X4500100Y-416986D01*
X4175114Y-644507D02*
G01*
X4505314Y-644507D01*
X4175114Y-644507D02*
G01*
X3844914Y-644507D01*
D23*
X3540114Y-1685907D02*
G01*
X3540114Y-1939907D01*
X2524114Y-1939907D01*
X2524114Y-1685907D01*
X2714614Y-1685907D01*
D24*
X3540114Y-1685907D02*
G01*
X2714614Y-1685907D01*
D10*
X3771404Y-822010D02*
G01*
X2522413Y-822010D01*
X2521419Y-821006D02*
G01*
X2521419Y-211005D01*
X3771404Y-821006D02*
G01*
X3771404Y-211005D01*
X3771404Y-211010D02*
G01*
X2521419Y-211010D01*
X2523789Y-652132D02*
G01*
X2573835Y-652132D01*
X2573835Y-260972D01*
X3723939Y-260972D01*
X3723939Y-610984D01*
X3770416Y-611009D01*
X3723939Y-773541D02*
G01*
X3582469Y-773541D01*
X3582469Y-818499D01*
X2523789Y-702932D02*
G01*
X2573835Y-702932D01*
X2573835Y-773541D01*
X2715054Y-773541D01*
X3048817Y-773511D02*
G01*
X3044489Y-773633D01*
X3488817Y-773633D01*
X3488817Y-818591D01*
X2715414Y-818446D02*
G01*
X2715414Y-773567D01*
X2808917Y-818512D02*
G01*
X2808917Y-773511D01*
X3044489Y-773511D01*
X3771404Y-694009D02*
G01*
X3723939Y-694042D01*
X3723939Y-773541D01*
X4022714Y-911207D02*
G01*
X4022714Y-1343007D01*
X3819514Y-1343007D01*
X3819514Y-911207D01*
X4022714Y-911207D01*
X4543414Y-911207D02*
G01*
X4543414Y-1343007D01*
X4746614Y-1343007D01*
X4746614Y-911207D01*
X4543414Y-911207D01*
X4302114Y-911207D02*
G01*
X4302114Y-1343007D01*
X4505314Y-1343007D01*
X4505314Y-911207D01*
X4302114Y-911207D01*
X4060814Y-911207D02*
G01*
X4060814Y-1343007D01*
X4264014Y-1343007D01*
X4264014Y-911207D01*
X4060814Y-911207D01*
X3303897Y-890892D02*
G01*
X3306427Y-893432D01*
X3306427Y-1259192D01*
X2607927Y-1259192D01*
X2607927Y-890892D01*
X2625714Y-890892D01*
X3303897Y-890892D01*
X3303897Y-1284592D02*
G01*
X3306427Y-1287132D01*
X3306427Y-1652892D01*
X2607927Y-1652892D01*
X2607927Y-1284592D01*
X2625714Y-1284592D01*
X3303897Y-1284592D01*
X3486779Y-1132192D02*
G01*
X3423279Y-1132194D01*
X3423279Y-974707D01*
X3636627Y-1129649D02*
G01*
X3705214Y-1129649D01*
X3707744Y-1127107D01*
X3707744Y-974707D01*
X3783944Y-1332849D02*
G01*
X3783944Y-1203307D01*
X3529944Y-1203307D01*
X3529944Y-1660507D01*
X3783944Y-1660507D01*
X3783944Y-1546207D01*
D22*
X4556114Y-720707D02*
G01*
X4556114Y-212707D01*
X4810114Y-212707D01*
X4810114Y-720707D01*
X4556114Y-720707D01*
X4556094Y7140498D02*
G01*
X4556094Y7648498D01*
X4810094Y7648498D01*
X4810094Y7140498D01*
X4556094Y7140498D01*
D10*
X3783929Y6528356D02*
G01*
X3783929Y6657898D01*
X3529929Y6657898D01*
X3529929Y6200698D01*
X3783929Y6200698D01*
X3783929Y6314998D01*
X3486759Y6729013D02*
G01*
X3423259Y6729011D01*
X3423259Y6886498D01*
X3636611Y6731556D02*
G01*
X3705194Y6731556D01*
X3707729Y6734098D01*
X3707729Y6886498D01*
X3303877Y6576613D02*
G01*
X3306411Y6574073D01*
X3306411Y6208313D01*
X2607911Y6208313D01*
X2607911Y6576613D01*
X2625694Y6576613D01*
X3303877Y6576613D01*
X3303877Y6970313D02*
G01*
X3306411Y6967773D01*
X3306411Y6602013D01*
X2607911Y6602013D01*
X2607911Y6970313D01*
X2625694Y6970313D01*
X3303877Y6970313D01*
X4060794Y6949998D02*
G01*
X4060794Y6518198D01*
X4263994Y6518198D01*
X4263994Y6949998D01*
X4060794Y6949998D01*
X4302094Y6949998D02*
G01*
X4302094Y6518198D01*
X4505294Y6518198D01*
X4505294Y6949998D01*
X4302094Y6949998D01*
X4543394Y6949998D02*
G01*
X4543394Y6518198D01*
X4746594Y6518198D01*
X4746594Y6949998D01*
X4543394Y6949998D01*
X4022694Y6949998D02*
G01*
X4022694Y6518198D01*
X3819494Y6518198D01*
X3819494Y6949998D01*
X4022694Y6949998D01*
X3771389Y7039195D02*
G01*
X2522392Y7039195D01*
X2521399Y7040199D02*
G01*
X2521399Y7650200D01*
X3771389Y7040199D02*
G01*
X3771389Y7650200D01*
X3771389Y7650195D02*
G01*
X2521399Y7650195D01*
X2523774Y7209073D02*
G01*
X2573820Y7209073D01*
X2573820Y7600233D01*
X3723924Y7600233D01*
X3723924Y7250221D01*
X3770396Y7250196D01*
X3723924Y7087664D02*
G01*
X3582454Y7087664D01*
X3582454Y7042706D01*
X2523774Y7158273D02*
G01*
X2573820Y7158273D01*
X2573820Y7087664D01*
X2715039Y7087664D01*
X3048802Y7087694D02*
G01*
X3044474Y7087572D01*
X3488801Y7087572D01*
X3488801Y7042614D01*
X2715394Y7042759D02*
G01*
X2715394Y7087638D01*
X2808897Y7042693D02*
G01*
X2808897Y7087694D01*
X3044474Y7087694D01*
X3771389Y7167196D02*
G01*
X3723924Y7167163D01*
X3723924Y7087664D01*
D23*
X3540094Y6175298D02*
G01*
X3540094Y5921298D01*
X2524094Y5921298D01*
X2524094Y6175298D01*
X2714594Y6175298D01*
D24*
X3540094Y6175298D02*
G01*
X2714594Y6175298D01*
D10*
X3850101Y7643693D02*
G01*
X4500084Y7643693D01*
X4500084Y7343670D02*
G01*
X3850101Y7343670D01*
X4375096Y7343698D02*
G01*
X4375096Y7643693D01*
X3975092Y7343698D02*
G01*
X3975092Y7643693D01*
X3850101Y7643693D02*
G01*
X3850101Y7444219D01*
X3850101Y7643693D02*
G01*
X3850101Y7444219D01*
X4500084Y7643693D02*
G01*
X4500084Y7444219D01*
X4500084Y7643693D02*
G01*
X4500084Y7444219D01*
X4175094Y7216698D02*
G01*
X4505294Y7216698D01*
X4175094Y7216698D02*
G01*
X3844894Y7216698D01*
D22*
X7067496Y7140493D02*
G01*
X7067496Y7648493D01*
X7321496Y7648493D01*
X7321496Y7140493D01*
X7067496Y7140493D01*
D10*
X6295336Y6528356D02*
G01*
X6295336Y6657893D01*
X6041336Y6657893D01*
X6041336Y6200693D01*
X6295336Y6200693D01*
X6295336Y6314993D01*
X5998161Y6729011D02*
G01*
X5934661Y6729011D01*
X5934661Y6886493D01*
X6148016Y6731556D02*
G01*
X6216596Y6731556D01*
X6219136Y6734093D01*
X6219136Y6886493D01*
X5815279Y6576611D02*
G01*
X5817816Y6574073D01*
X5817816Y6208311D01*
X5119316Y6208311D01*
X5119316Y6576611D01*
X5137096Y6576611D01*
X5815279Y6576611D01*
X5815279Y6970311D02*
G01*
X5817816Y6967773D01*
X5817816Y6602011D01*
X5119316Y6602011D01*
X5119316Y6970311D01*
X5137096Y6970311D01*
X5815279Y6970311D01*
X6572196Y6949993D02*
G01*
X6572196Y6518193D01*
X6775396Y6518193D01*
X6775396Y6949993D01*
X6572196Y6949993D01*
X6813496Y6949993D02*
G01*
X6813496Y6518193D01*
X7016696Y6518193D01*
X7016696Y6949993D01*
X6813496Y6949993D01*
X7054796Y6949993D02*
G01*
X7054796Y6518193D01*
X7257996Y6518193D01*
X7257996Y6949993D01*
X7054796Y6949993D01*
X6534096Y6949993D02*
G01*
X6534096Y6518193D01*
X6330896Y6518193D01*
X6330896Y6949993D01*
X6534096Y6949993D01*
X6282794Y7039190D02*
G01*
X5033794Y7039190D01*
X5032801Y7040199D02*
G01*
X5032801Y7650195D01*
X6282796Y7040199D02*
G01*
X6282796Y7650195D01*
X6282796Y7650192D02*
G01*
X5032801Y7650192D01*
X5035179Y7209073D02*
G01*
X5085217Y7209073D01*
X5085217Y7600233D01*
X6235329Y7600233D01*
X6235329Y7250224D01*
X6281798Y7250191D01*
X6235329Y7087664D02*
G01*
X6093851Y7087664D01*
X6093851Y7042706D01*
X5035179Y7158273D02*
G01*
X5085217Y7158273D01*
X5085217Y7087664D01*
X5226441Y7087664D01*
X5560204Y7087689D02*
G01*
X5555871Y7087572D01*
X6000203Y7087572D01*
X6000203Y7042614D01*
X5226799Y7042757D02*
G01*
X5226799Y7087636D01*
X5320299Y7042691D02*
G01*
X5320299Y7087689D01*
X5555876Y7087689D01*
X6282794Y7167194D02*
G01*
X6235329Y7167161D01*
X6235329Y7087664D01*
D23*
X6051496Y6175293D02*
G01*
X6051496Y5921293D01*
X5035496Y5921293D01*
X5035496Y6175293D01*
X5225996Y6175293D01*
D24*
X6051496Y6175293D02*
G01*
X5225996Y6175293D01*
D10*
X6361503Y7643695D02*
G01*
X7011489Y7643695D01*
X7011489Y7343668D02*
G01*
X6361503Y7343668D01*
X6886498Y7343693D02*
G01*
X6886498Y7643695D01*
X6486497Y7343693D02*
G01*
X6486497Y7643695D01*
X6361503Y7643695D02*
G01*
X6361503Y7444224D01*
X6361503Y7643695D02*
G01*
X6361503Y7444224D01*
X7011489Y7643695D02*
G01*
X7011489Y7444224D01*
X7011489Y7643695D02*
G01*
X7011489Y7444224D01*
X6686496Y7216693D02*
G01*
X7016696Y7216693D01*
X6686496Y7216693D02*
G01*
X6356296Y7216693D01*
D22*
X9578903Y7140491D02*
G01*
X9578903Y7648491D01*
X9832903Y7648491D01*
X9832903Y7140491D01*
X9578903Y7140491D01*
D10*
X8806741Y6528351D02*
G01*
X8806741Y6657891D01*
X8552741Y6657891D01*
X8552741Y6200691D01*
X8806741Y6200691D01*
X8806741Y6314991D01*
X8509558Y6729013D02*
G01*
X8446058Y6729008D01*
X8446058Y6886491D01*
X8659423Y6731556D02*
G01*
X8728003Y6731551D01*
X8730541Y6734091D01*
X8730541Y6886491D01*
X8326686Y6576613D02*
G01*
X8329223Y6574073D01*
X8329223Y6208313D01*
X7630723Y6208313D01*
X7630723Y6576613D01*
X7648503Y6576613D01*
X8326686Y6576613D01*
X8326686Y6970313D02*
G01*
X8329223Y6967773D01*
X8329223Y6602013D01*
X7630723Y6602013D01*
X7630723Y6970313D01*
X7648503Y6970313D01*
X8326686Y6970313D01*
X9083603Y6949991D02*
G01*
X9083603Y6518191D01*
X9286803Y6518191D01*
X9286803Y6949991D01*
X9083603Y6949991D01*
X9324903Y6949991D02*
G01*
X9324903Y6518191D01*
X9528103Y6518191D01*
X9528103Y6949991D01*
X9324903Y6949991D01*
X9566203Y6949991D02*
G01*
X9566203Y6518191D01*
X9769403Y6518191D01*
X9769403Y6949991D01*
X9566203Y6949991D01*
X9045503Y6949991D02*
G01*
X9045503Y6518191D01*
X8842303Y6518191D01*
X8842303Y6949991D01*
X9045503Y6949991D01*
X8794201Y7039193D02*
G01*
X7545204Y7039193D01*
X7544198Y7040194D02*
G01*
X7544198Y7650198D01*
X8794211Y7040194D02*
G01*
X8794211Y7650192D01*
X8794211Y7650192D02*
G01*
X7544198Y7650192D01*
X7546586Y7209073D02*
G01*
X7596621Y7209073D01*
X7596621Y7600233D01*
X8746736Y7600233D01*
X8746736Y7250221D01*
X8793195Y7250193D01*
X8746736Y7087659D02*
G01*
X8605255Y7087659D01*
X8605255Y7042701D01*
X7546586Y7158273D02*
G01*
X7596621Y7158273D01*
X7596621Y7087659D01*
X7737850Y7087659D01*
X8071614Y7087687D02*
G01*
X8067273Y7087572D01*
X8511613Y7087572D01*
X8511613Y7042609D01*
X7738206Y7042751D02*
G01*
X7738206Y7087631D01*
X7831706Y7042693D02*
G01*
X7831706Y7087692D01*
X8067283Y7087692D01*
X8794201Y7167194D02*
G01*
X8746736Y7167163D01*
X8746736Y7087659D01*
D23*
X8562903Y6175291D02*
G01*
X8562903Y5921291D01*
X7546903Y5921291D01*
X7546903Y6175291D01*
X7737403Y6175291D01*
D24*
X8562903Y6175291D02*
G01*
X7737403Y6175291D01*
D10*
X8872913Y7643690D02*
G01*
X9522896Y7643690D01*
X9522896Y7343668D02*
G01*
X8872913Y7343668D01*
X9397895Y7343691D02*
G01*
X9397895Y7643690D01*
X8997904Y7343691D02*
G01*
X8997904Y7643690D01*
X8872913Y7643690D02*
G01*
X8872913Y7444219D01*
X8872913Y7643690D02*
G01*
X8872913Y7444219D01*
X9522896Y7643690D02*
G01*
X9522896Y7444219D01*
X9522896Y7643690D02*
G01*
X9522896Y7444219D01*
X9197903Y7216691D02*
G01*
X9528103Y7216691D01*
X9197903Y7216691D02*
G01*
X8867703Y7216691D01*
D22*
X12090303Y7140491D02*
G01*
X12090303Y7648491D01*
X12344303Y7648491D01*
X12344303Y7140491D01*
X12090303Y7140491D01*
D10*
X11318146Y6528351D02*
G01*
X11318146Y6657891D01*
X11064146Y6657891D01*
X11064146Y6200691D01*
X11318146Y6200691D01*
X11318146Y6314991D01*
X11020966Y6729011D02*
G01*
X10957466Y6729006D01*
X10957466Y6886491D01*
X11170828Y6731553D02*
G01*
X11239400Y6731551D01*
X11241946Y6734091D01*
X11241946Y6886491D01*
X10838083Y6576611D02*
G01*
X10840628Y6574071D01*
X10840628Y6208311D01*
X10142128Y6208311D01*
X10142128Y6576611D01*
X10159903Y6576611D01*
X10838083Y6576611D01*
X10838083Y6970311D02*
G01*
X10840628Y6967771D01*
X10840628Y6602011D01*
X10142128Y6602011D01*
X10142128Y6970311D01*
X10159903Y6970311D01*
X10838083Y6970311D01*
X11595003Y6949991D02*
G01*
X11595003Y6518191D01*
X11798203Y6518191D01*
X11798203Y6949991D01*
X11595003Y6949991D01*
X11836303Y6949991D02*
G01*
X11836303Y6518191D01*
X12039503Y6518191D01*
X12039503Y6949991D01*
X11836303Y6949991D01*
X12077603Y6949991D02*
G01*
X12077603Y6518191D01*
X12280803Y6518191D01*
X12280803Y6949991D01*
X12077603Y6949991D01*
X11556903Y6949991D02*
G01*
X11556903Y6518191D01*
X11353703Y6518191D01*
X11353703Y6949991D01*
X11556903Y6949991D01*
X11305606Y7039190D02*
G01*
X10056601Y7039190D01*
X10055605Y7040194D02*
G01*
X10055605Y7650195D01*
X11305606Y7040194D02*
G01*
X11305606Y7650192D01*
X11305606Y7650190D02*
G01*
X10055605Y7650190D01*
X10057991Y7209071D02*
G01*
X10108026Y7209071D01*
X10108026Y7600228D01*
X11258141Y7600228D01*
X11258141Y7250219D01*
X11304602Y7250191D01*
X11258141Y7087659D02*
G01*
X11116660Y7087659D01*
X11116660Y7042701D01*
X10057991Y7158271D02*
G01*
X10108026Y7158271D01*
X10108026Y7087659D01*
X10249247Y7087659D01*
X10583019Y7087687D02*
G01*
X10578680Y7087570D01*
X11023010Y7087570D01*
X11023010Y7042609D01*
X10249611Y7042751D02*
G01*
X10249611Y7087631D01*
X10343103Y7042691D02*
G01*
X10343103Y7087689D01*
X10578680Y7087689D01*
X11305606Y7167189D02*
G01*
X11258141Y7167161D01*
X11258141Y7087659D01*
D23*
X11074303Y6175291D02*
G01*
X11074303Y5921291D01*
X10058303Y5921291D01*
X10058303Y6175291D01*
X10248803Y6175291D01*
D24*
X11074303Y6175291D02*
G01*
X10248803Y6175291D01*
D10*
X11384310Y7643690D02*
G01*
X12034296Y7643690D01*
X12034296Y7343665D02*
G01*
X11384310Y7343665D01*
X11909303Y7343691D02*
G01*
X11909303Y7643690D01*
X11509308Y7343691D02*
G01*
X11509308Y7643690D01*
X11384310Y7643690D02*
G01*
X11384310Y7444214D01*
X11384310Y7643690D02*
G01*
X11384310Y7444214D01*
X12034296Y7643690D02*
G01*
X12034296Y7444214D01*
X12034296Y7643690D02*
G01*
X12034296Y7444214D01*
X11709303Y7216691D02*
G01*
X12039503Y7216691D01*
X11709303Y7216691D02*
G01*
X11379103Y7216691D01*
X1338691Y7643698D02*
G01*
X1988677Y7643698D01*
X1988677Y7343673D02*
G01*
X1338691Y7343673D01*
X1863684Y7343698D02*
G01*
X1863684Y7643698D01*
X1463685Y7343698D02*
G01*
X1463685Y7643698D01*
X1338691Y7643698D02*
G01*
X1338691Y7444224D01*
X1338691Y7643698D02*
G01*
X1338691Y7444224D01*
X1988677Y7643698D02*
G01*
X1988677Y7444224D01*
X1988677Y7643698D02*
G01*
X1988677Y7444224D01*
X1663684Y7216698D02*
G01*
X1993884Y7216698D01*
X1663684Y7216698D02*
G01*
X1333484Y7216698D01*
D23*
X1028684Y6175298D02*
G01*
X1028684Y5921298D01*
X12684Y5921298D01*
X12684Y6175298D01*
X203184Y6175298D01*
D24*
X1028684Y6175298D02*
G01*
X203184Y6175298D01*
D10*
X1259982Y7039198D02*
G01*
X10982Y7039198D01*
X9984Y7040201D02*
G01*
X9984Y7650203D01*
X1259984Y7040201D02*
G01*
X1259984Y7650200D01*
X1259984Y7650198D02*
G01*
X9984Y7650198D01*
X12367Y7209078D02*
G01*
X62405Y7209078D01*
X62405Y7600238D01*
X1212517Y7600238D01*
X1212517Y7250226D01*
X1258984Y7250198D01*
X1212517Y7087666D02*
G01*
X1071039Y7087666D01*
X1071039Y7042708D01*
X12367Y7158278D02*
G01*
X62405Y7158278D01*
X62405Y7087666D01*
X203629Y7087666D01*
X537395Y7087694D02*
G01*
X533059Y7087577D01*
X977392Y7087577D01*
X977392Y7042617D01*
X203987Y7042759D02*
G01*
X203987Y7087638D01*
X297484Y7042698D02*
G01*
X297484Y7087697D01*
X533062Y7087697D01*
X1259982Y7167199D02*
G01*
X1212517Y7167168D01*
X1212517Y7087666D01*
X1511284Y6949998D02*
G01*
X1511284Y6518198D01*
X1308084Y6518198D01*
X1308084Y6949998D01*
X1511284Y6949998D01*
X2031984Y6949998D02*
G01*
X2031984Y6518198D01*
X2235184Y6518198D01*
X2235184Y6949998D01*
X2031984Y6949998D01*
X1790684Y6949998D02*
G01*
X1790684Y6518198D01*
X1993884Y6518198D01*
X1993884Y6949998D01*
X1790684Y6949998D01*
X1549384Y6949998D02*
G01*
X1549384Y6518198D01*
X1752584Y6518198D01*
X1752584Y6949998D01*
X1549384Y6949998D01*
X792464Y6970318D02*
G01*
X795004Y6967778D01*
X795004Y6602018D01*
X96504Y6602018D01*
X96504Y6970318D01*
X114284Y6970318D01*
X792464Y6970318D01*
X792464Y6576618D02*
G01*
X795004Y6574078D01*
X795004Y6208318D01*
X96504Y6208318D01*
X96504Y6576618D01*
X114284Y6576618D01*
X792464Y6576618D01*
X975344Y6729018D02*
G01*
X911844Y6729016D01*
X911844Y6886498D01*
X1125204Y6731561D02*
G01*
X1193782Y6731558D01*
X1196324Y6734098D01*
X1196324Y6886498D01*
X1272524Y6528358D02*
G01*
X1272524Y6657898D01*
X1018524Y6657898D01*
X1018524Y6200698D01*
X1272524Y6200698D01*
X1272524Y6314998D01*
D22*
X2044684Y7140498D02*
G01*
X2044684Y7648498D01*
X2298684Y7648498D01*
X2298684Y7140498D01*
X2044684Y7140498D01*
M02*
